<svg id="visual" viewBox="0 0 960 100" width="960" height="100" xmlns="http://www.w3.org/2000/svg" xmlns:xlink="http://www.w3.org/1999/xlink" version="1.1"><path d="M0 38L13.3 37.2C26.7 36.3 53.3 34.7 80 34.2C106.7 33.7 133.3 34.3 160 34.8C186.7 35.3 213.3 35.7 240 31.7C266.7 27.7 293.3 19.3 320 18.7C346.7 18 373.3 25 400 30.7C426.7 36.3 453.3 40.7 480 41.2C506.7 41.7 533.3 38.3 560 33C586.7 27.7 613.3 20.3 640 19.5C666.7 18.7 693.3 24.3 720 26.5C746.7 28.7 773.3 27.3 800 28.8C826.7 30.3 853.3 34.7 880 34.5C906.7 34.3 933.3 29.7 946.7 27.3L960 25L960 101L946.7 101C933.3 101 906.7 101 880 101C853.3 101 826.7 101 800 101C773.3 101 746.7 101 720 101C693.3 101 666.7 101 640 101C613.3 101 586.7 101 560 101C533.3 101 506.7 101 480 101C453.3 101 426.7 101 400 101C373.3 101 346.7 101 320 101C293.3 101 266.7 101 240 101C213.3 101 186.7 101 160 101C133.3 101 106.7 101 80 101C53.3 101 26.7 101 13.3 101L0 101Z" fill="#070617"></path><path d="M0 35L13.3 34.2C26.7 33.3 53.3 31.7 80 36.2C106.7 40.7 133.3 51.3 160 52.5C186.7 53.7 213.3 45.3 240 44.3C266.7 43.3 293.3 49.7 320 50.8C346.7 52 373.3 48 400 47C426.7 46 453.3 48 480 51.3C506.7 54.7 533.3 59.3 560 57.3C586.7 55.3 613.3 46.7 640 46.5C666.7 46.3 693.3 54.7 720 56.3C746.7 58 773.3 53 800 51.7C826.7 50.3 853.3 52.7 880 51C906.7 49.3 933.3 43.7 946.7 40.8L960 38L960 101L946.7 101C933.3 101 906.7 101 880 101C853.3 101 826.7 101 800 101C773.3 101 746.7 101 720 101C693.3 101 666.7 101 640 101C613.3 101 586.7 101 560 101C533.3 101 506.7 101 480 101C453.3 101 426.7 101 400 101C373.3 101 346.7 101 320 101C293.3 101 266.7 101 240 101C213.3 101 186.7 101 160 101C133.3 101 106.7 101 80 101C53.3 101 26.7 101 13.3 101L0 101Z" fill="#413041"></path><path d="M0 63L13.3 64.5C26.7 66 53.3 69 80 67.2C106.7 65.3 133.3 58.7 160 57.3C186.7 56 213.3 60 240 62.8C266.7 65.7 293.3 67.3 320 68.2C346.7 69 373.3 69 400 69.3C426.7 69.7 453.3 70.3 480 66.2C506.7 62 533.3 53 560 53.3C586.7 53.7 613.3 63.3 640 67.5C666.7 71.7 693.3 70.3 720 66.3C746.7 62.3 773.3 55.7 800 51.2C826.7 46.7 853.3 44.3 880 42.8C906.7 41.3 933.3 40.7 946.7 40.3L960 40L960 101L946.7 101C933.3 101 906.7 101 880 101C853.3 101 826.7 101 800 101C773.3 101 746.7 101 720 101C693.3 101 666.7 101 640 101C613.3 101 586.7 101 560 101C533.3 101 506.7 101 480 101C453.3 101 426.7 101 400 101C373.3 101 346.7 101 320 101C293.3 101 266.7 101 240 101C213.3 101 186.7 101 160 101C133.3 101 106.7 101 80 101C53.3 101 26.7 101 13.3 101L0 101Z" fill="#825966"></path><path d="M0 63L13.3 62.5C26.7 62 53.3 61 80 62.2C106.7 63.3 133.3 66.7 160 67.3C186.7 68 213.3 66 240 67.5C266.7 69 293.3 74 320 75.3C346.7 76.7 373.3 74.3 400 74.5C426.7 74.7 453.3 77.3 480 76.2C506.7 75 533.3 70 560 69.7C586.7 69.3 613.3 73.7 640 76.3C666.7 79 693.3 80 720 80.7C746.7 81.3 773.3 81.7 800 80.8C826.7 80 853.3 78 880 77.2C906.7 76.3 933.3 76.7 946.7 76.8L960 77L960 101L946.7 101C933.3 101 906.7 101 880 101C853.3 101 826.7 101 800 101C773.3 101 746.7 101 720 101C693.3 101 666.7 101 640 101C613.3 101 586.7 101 560 101C533.3 101 506.7 101 480 101C453.3 101 426.7 101 400 101C373.3 101 346.7 101 320 101C293.3 101 266.7 101 240 101C213.3 101 186.7 101 160 101C133.3 101 106.7 101 80 101C53.3 101 26.7 101 13.3 101L0 101Z" fill="#c28a83"></path><path d="M0 76L13.3 77.7C26.7 79.3 53.3 82.7 80 84C106.7 85.3 133.3 84.7 160 84.2C186.7 83.7 213.3 83.3 240 81.3C266.7 79.3 293.3 75.7 320 74.2C346.7 72.7 373.3 73.3 400 76.7C426.7 80 453.3 86 480 86C506.7 86 533.3 80 560 79.8C586.7 79.7 613.3 85.3 640 86.3C666.7 87.3 693.3 83.7 720 84C746.7 84.3 773.3 88.7 800 89.8C826.7 91 853.3 89 880 86.5C906.7 84 933.3 81 946.7 79.5L960 78L960 101L946.7 101C933.3 101 906.7 101 880 101C853.3 101 826.7 101 800 101C773.3 101 746.7 101 720 101C693.3 101 666.7 101 640 101C613.3 101 586.7 101 560 101C533.3 101 506.7 101 480 101C453.3 101 426.7 101 400 101C373.3 101 346.7 101 320 101C293.3 101 266.7 101 240 101C213.3 101 186.7 101 160 101C133.3 101 106.7 101 80 101C53.3 101 26.7 101 13.3 101L0 101Z" fill="#f7c59f"></path></svg>