<svg id="visual" viewBox="0 0 960 100" width="960" height="100" xmlns="http://www.w3.org/2000/svg" xmlns:xlink="http://www.w3.org/1999/xlink" version="1.1"><path d="M0 49L13.3 53.3C26.7 57.7 53.3 66.3 80 72.5C106.7 78.7 133.3 82.3 160 77C186.7 71.7 213.3 57.3 240 57C266.7 56.7 293.3 70.3 320 76.5C346.7 82.7 373.3 81.3 400 75.2C426.7 69 453.3 58 480 52.3C506.7 46.7 533.3 46.3 560 47C586.7 47.7 613.3 49.3 640 49C666.7 48.7 693.3 46.3 720 46.2C746.7 46 773.3 48 800 55.2C826.7 62.3 853.3 74.7 880 80.7C906.7 86.7 933.3 86.3 946.7 86.2L960 86L960 0L946.7 0C933.3 0 906.7 0 880 0C853.3 0 826.7 0 800 0C773.3 0 746.7 0 720 0C693.3 0 666.7 0 640 0C613.3 0 586.7 0 560 0C533.3 0 506.7 0 480 0C453.3 0 426.7 0 400 0C373.3 0 346.7 0 320 0C293.3 0 266.7 0 240 0C213.3 0 186.7 0 160 0C133.3 0 106.7 0 80 0C53.3 0 26.7 0 13.3 0L0 0Z" fill="#070617"></path><path d="M0 36L13.3 36.8C26.7 37.7 53.3 39.3 80 41.2C106.7 43 133.3 45 160 49.5C186.7 54 213.3 61 240 62.2C266.7 63.3 293.3 58.7 320 56.8C346.7 55 373.3 56 400 53.2C426.7 50.3 453.3 43.7 480 44.3C506.7 45 533.3 53 560 52.7C586.7 52.3 613.3 43.7 640 43.7C666.7 43.7 693.3 52.3 720 57C746.7 61.7 773.3 62.3 800 59.5C826.7 56.7 853.3 50.3 880 45.5C906.7 40.7 933.3 37.3 946.7 35.7L960 34L960 0L946.7 0C933.3 0 906.7 0 880 0C853.3 0 826.7 0 800 0C773.3 0 746.7 0 720 0C693.3 0 666.7 0 640 0C613.3 0 586.7 0 560 0C533.3 0 506.7 0 480 0C453.3 0 426.7 0 400 0C373.3 0 346.7 0 320 0C293.3 0 266.7 0 240 0C213.3 0 186.7 0 160 0C133.3 0 106.7 0 80 0C53.3 0 26.7 0 13.3 0L0 0Z" fill="#413041"></path><path d="M0 55L13.3 54.7C26.7 54.3 53.3 53.7 80 49.7C106.7 45.7 133.3 38.3 160 35.8C186.7 33.3 213.3 35.7 240 35.5C266.7 35.3 293.3 32.7 320 31.3C346.7 30 373.3 30 400 31.7C426.7 33.3 453.3 36.7 480 37.3C506.7 38 533.3 36 560 36.3C586.7 36.7 613.3 39.3 640 38.5C666.7 37.7 693.3 33.3 720 33.2C746.7 33 773.3 37 800 41.2C826.7 45.3 853.3 49.7 880 49.3C906.7 49 933.3 44 946.7 41.5L960 39L960 0L946.7 0C933.3 0 906.7 0 880 0C853.3 0 826.7 0 800 0C773.3 0 746.7 0 720 0C693.3 0 666.7 0 640 0C613.3 0 586.7 0 560 0C533.3 0 506.7 0 480 0C453.3 0 426.7 0 400 0C373.3 0 346.7 0 320 0C293.3 0 266.7 0 240 0C213.3 0 186.7 0 160 0C133.3 0 106.7 0 80 0C53.3 0 26.7 0 13.3 0L0 0Z" fill="#825966"></path><path d="M0 42L13.3 37.3C26.7 32.7 53.3 23.3 80 20.7C106.7 18 133.3 22 160 23.3C186.7 24.7 213.3 23.3 240 22.5C266.7 21.7 293.3 21.3 320 22.2C346.7 23 373.3 25 400 26.5C426.7 28 453.3 29 480 29.7C506.7 30.3 533.3 30.7 560 31.2C586.7 31.7 613.3 32.3 640 29.8C666.7 27.3 693.3 21.7 720 20.5C746.7 19.3 773.3 22.7 800 24.2C826.7 25.7 853.3 25.3 880 24.2C906.7 23 933.3 21 946.7 20L960 19L960 0L946.7 0C933.3 0 906.7 0 880 0C853.3 0 826.7 0 800 0C773.3 0 746.7 0 720 0C693.3 0 666.7 0 640 0C613.3 0 586.7 0 560 0C533.3 0 506.7 0 480 0C453.3 0 426.7 0 400 0C373.3 0 346.7 0 320 0C293.3 0 266.7 0 240 0C213.3 0 186.7 0 160 0C133.3 0 106.7 0 80 0C53.3 0 26.7 0 13.3 0L0 0Z" fill="#c28a83"></path><path d="M0 10L13.3 12.8C26.7 15.7 53.3 21.3 80 23.5C106.7 25.7 133.3 24.3 160 21.3C186.7 18.3 213.3 13.7 240 12.3C266.7 11 293.3 13 320 13.3C346.7 13.7 373.3 12.3 400 11.8C426.7 11.3 453.3 11.7 480 10.7C506.7 9.7 533.3 7.3 560 7.5C586.7 7.7 613.3 10.3 640 11.8C666.7 13.3 693.3 13.7 720 14C746.7 14.3 773.3 14.7 800 13.5C826.7 12.3 853.3 9.7 880 9.8C906.7 10 933.3 13 946.7 14.5L960 16L960 0L946.7 0C933.3 0 906.7 0 880 0C853.3 0 826.7 0 800 0C773.3 0 746.7 0 720 0C693.3 0 666.7 0 640 0C613.3 0 586.7 0 560 0C533.3 0 506.7 0 480 0C453.3 0 426.7 0 400 0C373.3 0 346.7 0 320 0C293.3 0 266.7 0 240 0C213.3 0 186.7 0 160 0C133.3 0 106.7 0 80 0C53.3 0 26.7 0 13.3 0L0 0Z" fill="#f7c59f"></path></svg>