<svg id="visual" viewBox="0 0 960 100" width="960" height="100" xmlns="http://www.w3.org/2000/svg" xmlns:xlink="http://www.w3.org/1999/xlink" version="1.1"><path d="M0 28L13.3 27.7C26.7 27.3 53.3 26.7 80 27.5C106.7 28.3 133.3 30.7 160 27.8C186.7 25 213.3 17 240 15.5C266.7 14 293.3 19 320 21.8C346.7 24.7 373.3 25.3 400 28.2C426.7 31 453.3 36 480 38.2C506.7 40.3 533.3 39.7 560 34.7C586.7 29.7 613.3 20.3 640 16.8C666.7 13.3 693.3 15.7 720 15.7C746.7 15.7 773.3 13.3 800 15.7C826.7 18 853.3 25 880 28.2C906.7 31.3 933.3 30.7 946.7 30.3L960 30L960 101L946.7 101C933.3 101 906.7 101 880 101C853.3 101 826.7 101 800 101C773.3 101 746.7 101 720 101C693.3 101 666.7 101 640 101C613.3 101 586.7 101 560 101C533.3 101 506.7 101 480 101C453.3 101 426.7 101 400 101C373.3 101 346.7 101 320 101C293.3 101 266.7 101 240 101C213.3 101 186.7 101 160 101C133.3 101 106.7 101 80 101C53.3 101 26.7 101 13.3 101L0 101Z" fill="#070617"></path><path d="M0 52L13.3 53.2C26.7 54.3 53.3 56.7 80 57.5C106.7 58.3 133.3 57.7 160 53.2C186.7 48.7 213.3 40.3 240 37.5C266.7 34.7 293.3 37.3 320 40.2C346.7 43 373.3 46 400 46.2C426.7 46.3 453.3 43.7 480 42.2C506.7 40.7 533.3 40.3 560 39.2C586.7 38 613.3 36 640 36.8C666.7 37.7 693.3 41.3 720 43C746.7 44.7 773.3 44.3 800 42.7C826.7 41 853.3 38 880 37.3C906.7 36.7 933.3 38.3 946.7 39.2L960 40L960 101L946.7 101C933.3 101 906.7 101 880 101C853.3 101 826.7 101 800 101C773.3 101 746.7 101 720 101C693.3 101 666.7 101 640 101C613.3 101 586.7 101 560 101C533.3 101 506.7 101 480 101C453.3 101 426.7 101 400 101C373.3 101 346.7 101 320 101C293.3 101 266.7 101 240 101C213.3 101 186.7 101 160 101C133.3 101 106.7 101 80 101C53.3 101 26.7 101 13.3 101L0 101Z" fill="#30183b"></path><path d="M0 69L13.3 65.2C26.7 61.3 53.3 53.7 80 49C106.7 44.3 133.3 42.7 160 42C186.7 41.3 213.3 41.7 240 41.8C266.7 42 293.3 42 320 46.7C346.7 51.3 373.3 60.7 400 60.5C426.7 60.3 453.3 50.7 480 48.3C506.7 46 533.3 51 560 56.5C586.7 62 613.3 68 640 67.7C666.7 67.3 693.3 60.7 720 58C746.7 55.3 773.3 56.7 800 59.5C826.7 62.3 853.3 66.7 880 63.8C906.7 61 933.3 51 946.7 46L960 41L960 101L946.7 101C933.3 101 906.7 101 880 101C853.3 101 826.7 101 800 101C773.3 101 746.7 101 720 101C693.3 101 666.7 101 640 101C613.3 101 586.7 101 560 101C533.3 101 506.7 101 480 101C453.3 101 426.7 101 400 101C373.3 101 346.7 101 320 101C293.3 101 266.7 101 240 101C213.3 101 186.7 101 160 101C133.3 101 106.7 101 80 101C53.3 101 26.7 101 13.3 101L0 101Z" fill="#6b164e"></path><path d="M0 63L13.3 65C26.7 67 53.3 71 80 72.5C106.7 74 133.3 73 160 70.8C186.7 68.7 213.3 65.3 240 64C266.7 62.7 293.3 63.3 320 65.3C346.7 67.3 373.3 70.7 400 73.3C426.7 76 453.3 78 480 78C506.7 78 533.3 76 560 72.2C586.7 68.3 613.3 62.7 640 64C666.7 65.3 693.3 73.7 720 76.5C746.7 79.3 773.3 76.7 800 74.7C826.7 72.7 853.3 71.3 880 71.5C906.7 71.7 933.3 73.3 946.7 74.2L960 75L960 101L946.7 101C933.3 101 906.7 101 880 101C853.3 101 826.7 101 800 101C773.3 101 746.7 101 720 101C693.3 101 666.7 101 640 101C613.3 101 586.7 101 560 101C533.3 101 506.7 101 480 101C453.3 101 426.7 101 400 101C373.3 101 346.7 101 320 101C293.3 101 266.7 101 240 101C213.3 101 186.7 101 160 101C133.3 101 106.7 101 80 101C53.3 101 26.7 101 13.3 101L0 101Z" fill="#a80448"></path><path d="M0 75L13.3 74.8C26.7 74.7 53.3 74.3 80 75.7C106.7 77 133.3 80 160 83.2C186.7 86.3 213.3 89.7 240 88C266.7 86.3 293.3 79.7 320 76.5C346.7 73.3 373.3 73.7 400 73.8C426.7 74 453.3 74 480 75.8C506.7 77.7 533.3 81.3 560 83.5C586.7 85.7 613.3 86.3 640 86.7C666.7 87 693.3 87 720 84.3C746.7 81.7 773.3 76.3 800 77.2C826.7 78 853.3 85 880 85.3C906.7 85.7 933.3 79.3 946.7 76.2L960 73L960 101L946.7 101C933.3 101 906.7 101 880 101C853.3 101 826.7 101 800 101C773.3 101 746.7 101 720 101C693.3 101 666.7 101 640 101C613.3 101 586.7 101 560 101C533.3 101 506.7 101 480 101C453.3 101 426.7 101 400 101C373.3 101 346.7 101 320 101C293.3 101 266.7 101 240 101C213.3 101 186.7 101 160 101C133.3 101 106.7 101 80 101C53.3 101 26.7 101 13.3 101L0 101Z" fill="#d62828"></path></svg>