<svg id="visual" viewBox="0 0 960 100" width="960" height="100" xmlns="http://www.w3.org/2000/svg" xmlns:xlink="http://www.w3.org/1999/xlink" version="1.1"><path d="M0 38L13.3 36.3C26.7 34.7 53.3 31.3 80 26.5C106.7 21.7 133.3 15.3 160 15.8C186.7 16.3 213.3 23.7 240 26.8C266.7 30 293.3 29 320 28.5C346.7 28 373.3 28 400 29C426.7 30 453.3 32 480 32.3C506.7 32.7 533.3 31.3 560 29C586.7 26.7 613.3 23.3 640 25.7C666.7 28 693.3 36 720 34.8C746.7 33.7 773.3 23.3 800 19.2C826.7 15 853.3 17 880 19.8C906.7 22.7 933.3 26.3 946.7 28.2L960 30L960 101L946.7 101C933.3 101 906.7 101 880 101C853.3 101 826.7 101 800 101C773.3 101 746.7 101 720 101C693.3 101 666.7 101 640 101C613.3 101 586.7 101 560 101C533.3 101 506.7 101 480 101C453.3 101 426.7 101 400 101C373.3 101 346.7 101 320 101C293.3 101 266.7 101 240 101C213.3 101 186.7 101 160 101C133.3 101 106.7 101 80 101C53.3 101 26.7 101 13.3 101L0 101Z" fill="#070617"></path><path d="M0 54L13.3 49.8C26.7 45.7 53.3 37.3 80 34C106.7 30.7 133.3 32.3 160 34.2C186.7 36 213.3 38 240 40.3C266.7 42.7 293.3 45.3 320 44.8C346.7 44.3 373.3 40.7 400 41.8C426.7 43 453.3 49 480 53C506.7 57 533.3 59 560 59.2C586.7 59.3 613.3 57.7 640 58.3C666.7 59 693.3 62 720 57.8C746.7 53.7 773.3 42.3 800 38.8C826.7 35.3 853.3 39.7 880 45.2C906.7 50.7 933.3 57.3 946.7 60.7L960 64L960 101L946.7 101C933.3 101 906.7 101 880 101C853.3 101 826.7 101 800 101C773.3 101 746.7 101 720 101C693.3 101 666.7 101 640 101C613.3 101 586.7 101 560 101C533.3 101 506.7 101 480 101C453.3 101 426.7 101 400 101C373.3 101 346.7 101 320 101C293.3 101 266.7 101 240 101C213.3 101 186.7 101 160 101C133.3 101 106.7 101 80 101C53.3 101 26.7 101 13.3 101L0 101Z" fill="#343f4c"></path><path d="M0 71L13.3 71C26.7 71 53.3 71 80 67.3C106.7 63.7 133.3 56.3 160 53.8C186.7 51.3 213.3 53.7 240 53.2C266.7 52.7 293.3 49.3 320 48.5C346.7 47.7 373.3 49.3 400 53.3C426.7 57.3 453.3 63.7 480 63C506.7 62.3 533.3 54.7 560 52C586.7 49.3 613.3 51.7 640 53C666.7 54.3 693.3 54.7 720 54.2C746.7 53.7 773.3 52.3 800 52.7C826.7 53 853.3 55 880 58.8C906.7 62.7 933.3 68.3 946.7 71.2L960 74L960 101L946.7 101C933.3 101 906.7 101 880 101C853.3 101 826.7 101 800 101C773.3 101 746.7 101 720 101C693.3 101 666.7 101 640 101C613.3 101 586.7 101 560 101C533.3 101 506.7 101 480 101C453.3 101 426.7 101 400 101C373.3 101 346.7 101 320 101C293.3 101 266.7 101 240 101C213.3 101 186.7 101 160 101C133.3 101 106.7 101 80 101C53.3 101 26.7 101 13.3 101L0 101Z" fill="#657a86"></path><path d="M0 78L13.3 75.3C26.7 72.7 53.3 67.3 80 67.8C106.7 68.3 133.3 74.7 160 75.2C186.7 75.7 213.3 70.3 240 69.3C266.7 68.3 293.3 71.7 320 72.3C346.7 73 373.3 71 400 68.8C426.7 66.7 453.3 64.3 480 66.7C506.7 69 533.3 76 560 79C586.7 82 613.3 81 640 79.8C666.7 78.7 693.3 77.3 720 75.3C746.7 73.3 773.3 70.7 800 71.5C826.7 72.3 853.3 76.7 880 74.7C906.7 72.7 933.3 64.3 946.7 60.2L960 56L960 101L946.7 101C933.3 101 906.7 101 880 101C853.3 101 826.7 101 800 101C773.3 101 746.7 101 720 101C693.3 101 666.7 101 640 101C613.3 101 586.7 101 560 101C533.3 101 506.7 101 480 101C453.3 101 426.7 101 400 101C373.3 101 346.7 101 320 101C293.3 101 266.7 101 240 101C213.3 101 186.7 101 160 101C133.3 101 106.7 101 80 101C53.3 101 26.7 101 13.3 101L0 101Z" fill="#9dbbc1"></path><path d="M0 77L13.3 79.5C26.7 82 53.3 87 80 86.7C106.7 86.3 133.3 80.7 160 77.2C186.7 73.7 213.3 72.3 240 73.5C266.7 74.7 293.3 78.3 320 80.7C346.7 83 373.3 84 400 84.2C426.7 84.3 453.3 83.7 480 83.7C506.7 83.7 533.3 84.3 560 83.2C586.7 82 613.3 79 640 78.3C666.7 77.7 693.3 79.3 720 80.3C746.7 81.3 773.3 81.7 800 80.3C826.7 79 853.3 76 880 76C906.7 76 933.3 79 946.7 80.5L960 82L960 101L946.7 101C933.3 101 906.7 101 880 101C853.3 101 826.7 101 800 101C773.3 101 746.7 101 720 101C693.3 101 666.7 101 640 101C613.3 101 586.7 101 560 101C533.3 101 506.7 101 480 101C453.3 101 426.7 101 400 101C373.3 101 346.7 101 320 101C293.3 101 266.7 101 240 101C213.3 101 186.7 101 160 101C133.3 101 106.7 101 80 101C53.3 101 26.7 101 13.3 101L0 101Z" fill="#defffc"></path></svg>