<svg id="visual" viewBox="0 0 960 100" width="960" height="100" xmlns="http://www.w3.org/2000/svg" xmlns:xlink="http://www.w3.org/1999/xlink" version="1.1"><path d="M0 47L13.3 53.3C26.7 59.7 53.3 72.3 80 73.7C106.7 75 133.3 65 160 60.5C186.7 56 213.3 57 240 62.3C266.7 67.7 293.3 77.3 320 80.8C346.7 84.3 373.3 81.7 400 76C426.7 70.3 453.3 61.7 480 59.7C506.7 57.7 533.3 62.3 560 65.7C586.7 69 613.3 71 640 68.5C666.7 66 693.3 59 720 61.3C746.7 63.7 773.3 75.3 800 81.3C826.7 87.3 853.3 87.7 880 87C906.7 86.3 933.3 84.7 946.7 83.8L960 83L960 0L946.7 0C933.3 0 906.7 0 880 0C853.3 0 826.7 0 800 0C773.3 0 746.7 0 720 0C693.3 0 666.7 0 640 0C613.3 0 586.7 0 560 0C533.3 0 506.7 0 480 0C453.3 0 426.7 0 400 0C373.3 0 346.7 0 320 0C293.3 0 266.7 0 240 0C213.3 0 186.7 0 160 0C133.3 0 106.7 0 80 0C53.3 0 26.7 0 13.3 0L0 0Z" fill="#070617"></path><path d="M0 44L13.3 44.5C26.7 45 53.3 46 80 46C106.7 46 133.3 45 160 47.5C186.7 50 213.3 56 240 59.7C266.7 63.3 293.3 64.7 320 65C346.7 65.3 373.3 64.7 400 63.2C426.7 61.7 453.3 59.3 480 58.3C506.7 57.3 533.3 57.7 560 57.8C586.7 58 613.3 58 640 59.5C666.7 61 693.3 64 720 61.2C746.7 58.3 773.3 49.7 800 46.5C826.7 43.3 853.3 45.7 880 48.2C906.7 50.7 933.3 53.3 946.7 54.7L960 56L960 0L946.7 0C933.3 0 906.7 0 880 0C853.3 0 826.7 0 800 0C773.3 0 746.7 0 720 0C693.3 0 666.7 0 640 0C613.3 0 586.7 0 560 0C533.3 0 506.7 0 480 0C453.3 0 426.7 0 400 0C373.3 0 346.7 0 320 0C293.3 0 266.7 0 240 0C213.3 0 186.7 0 160 0C133.3 0 106.7 0 80 0C53.3 0 26.7 0 13.3 0L0 0Z" fill="#232432"></path><path d="M0 42L13.3 42.5C26.7 43 53.3 44 80 45.5C106.7 47 133.3 49 160 48.5C186.7 48 213.3 45 240 45C266.7 45 293.3 48 320 50.7C346.7 53.3 373.3 55.7 400 54.7C426.7 53.7 453.3 49.3 480 45.3C506.7 41.3 533.3 37.7 560 34.5C586.7 31.3 613.3 28.7 640 31.2C666.7 33.7 693.3 41.3 720 45C746.7 48.7 773.3 48.3 800 49.7C826.7 51 853.3 54 880 53C906.7 52 933.3 47 946.7 44.5L960 42L960 0L946.7 0C933.3 0 906.7 0 880 0C853.3 0 826.7 0 800 0C773.3 0 746.7 0 720 0C693.3 0 666.7 0 640 0C613.3 0 586.7 0 560 0C533.3 0 506.7 0 480 0C453.3 0 426.7 0 400 0C373.3 0 346.7 0 320 0C293.3 0 266.7 0 240 0C213.3 0 186.7 0 160 0C133.3 0 106.7 0 80 0C53.3 0 26.7 0 13.3 0L0 0Z" fill="#3d3f50"></path><path d="M0 32L13.3 32.8C26.7 33.7 53.3 35.3 80 32.7C106.7 30 133.3 23 160 23.2C186.7 23.3 213.3 30.7 240 34C266.7 37.3 293.3 36.7 320 36C346.7 35.3 373.3 34.7 400 34.3C426.7 34 453.3 34 480 30.7C506.7 27.3 533.3 20.7 560 19.3C586.7 18 613.3 22 640 23.2C666.7 24.3 693.3 22.7 720 22.7C746.7 22.7 773.3 24.3 800 23.3C826.7 22.3 853.3 18.7 880 18.5C906.7 18.3 933.3 21.7 946.7 23.3L960 25L960 0L946.7 0C933.3 0 906.7 0 880 0C853.3 0 826.7 0 800 0C773.3 0 746.7 0 720 0C693.3 0 666.7 0 640 0C613.3 0 586.7 0 560 0C533.3 0 506.7 0 480 0C453.3 0 426.7 0 400 0C373.3 0 346.7 0 320 0C293.3 0 266.7 0 240 0C213.3 0 186.7 0 160 0C133.3 0 106.7 0 80 0C53.3 0 26.7 0 13.3 0L0 0Z" fill="#595c70"></path><path d="M0 11L13.3 11C26.7 11 53.3 11 80 11C106.7 11 133.3 11 160 12.7C186.7 14.3 213.3 17.7 240 19.7C266.7 21.7 293.3 22.3 320 20.5C346.7 18.7 373.3 14.3 400 14.8C426.7 15.3 453.3 20.7 480 21C506.7 21.3 533.3 16.7 560 13.2C586.7 9.7 613.3 7.3 640 9.3C666.7 11.3 693.3 17.7 720 19.2C746.7 20.7 773.3 17.3 800 15.8C826.7 14.3 853.3 14.7 880 13.3C906.7 12 933.3 9 946.7 7.5L960 6L960 0L946.7 0C933.3 0 906.7 0 880 0C853.3 0 826.7 0 800 0C773.3 0 746.7 0 720 0C693.3 0 666.7 0 640 0C613.3 0 586.7 0 560 0C533.3 0 506.7 0 480 0C453.3 0 426.7 0 400 0C373.3 0 346.7 0 320 0C293.3 0 266.7 0 240 0C213.3 0 186.7 0 160 0C133.3 0 106.7 0 80 0C53.3 0 26.7 0 13.3 0L0 0Z" fill="#767b91"></path></svg>