<svg id="visual" viewBox="0 0 960 100" width="960" height="100" xmlns="http://www.w3.org/2000/svg" xmlns:xlink="http://www.w3.org/1999/xlink" version="1.1"><path d="M0 69L13.3 66.5C26.7 64 53.3 59 80 57.7C106.7 56.3 133.3 58.7 160 57.3C186.7 56 213.3 51 240 51.3C266.7 51.7 293.3 57.3 320 63.7C346.7 70 373.3 77 400 80.7C426.7 84.3 453.3 84.7 480 83.7C506.7 82.7 533.3 80.3 560 73.3C586.7 66.3 613.3 54.7 640 54.3C666.7 54 693.3 65 720 70.5C746.7 76 773.3 76 800 73.3C826.7 70.7 853.3 65.3 880 64.2C906.7 63 933.3 66 946.7 67.5L960 69L960 0L946.7 0C933.3 0 906.7 0 880 0C853.3 0 826.7 0 800 0C773.3 0 746.7 0 720 0C693.3 0 666.7 0 640 0C613.3 0 586.7 0 560 0C533.3 0 506.7 0 480 0C453.3 0 426.7 0 400 0C373.3 0 346.7 0 320 0C293.3 0 266.7 0 240 0C213.3 0 186.7 0 160 0C133.3 0 106.7 0 80 0C53.3 0 26.7 0 13.3 0L0 0Z" fill="#070617"></path><path d="M0 36L13.3 41.5C26.7 47 53.3 58 80 58.2C106.7 58.3 133.3 47.7 160 48.2C186.7 48.7 213.3 60.3 240 61.3C266.7 62.3 293.3 52.7 320 52.5C346.7 52.3 373.3 61.7 400 60.8C426.7 60 453.3 49 480 46C506.7 43 533.3 48 560 49C586.7 50 613.3 47 640 47.2C666.7 47.3 693.3 50.7 720 54.7C746.7 58.7 773.3 63.3 800 61.8C826.7 60.3 853.3 52.7 880 48.2C906.7 43.7 933.3 42.3 946.7 41.7L960 41L960 0L946.7 0C933.3 0 906.7 0 880 0C853.3 0 826.7 0 800 0C773.3 0 746.7 0 720 0C693.3 0 666.7 0 640 0C613.3 0 586.7 0 560 0C533.3 0 506.7 0 480 0C453.3 0 426.7 0 400 0C373.3 0 346.7 0 320 0C293.3 0 266.7 0 240 0C213.3 0 186.7 0 160 0C133.3 0 106.7 0 80 0C53.3 0 26.7 0 13.3 0L0 0Z" fill="#343f4c"></path><path d="M0 56L13.3 50.8C26.7 45.7 53.3 35.3 80 34.2C106.7 33 133.3 41 160 43C186.7 45 213.3 41 240 41.2C266.7 41.3 293.3 45.7 320 46.8C346.7 48 373.3 46 400 44.8C426.7 43.7 453.3 43.3 480 45.2C506.7 47 533.3 51 560 53.2C586.7 55.3 613.3 55.7 640 51.7C666.7 47.7 693.3 39.3 720 38.5C746.7 37.7 773.3 44.3 800 45.8C826.7 47.3 853.3 43.7 880 39.7C906.7 35.7 933.3 31.3 946.7 29.2L960 27L960 0L946.7 0C933.3 0 906.7 0 880 0C853.3 0 826.7 0 800 0C773.3 0 746.7 0 720 0C693.3 0 666.7 0 640 0C613.3 0 586.7 0 560 0C533.3 0 506.7 0 480 0C453.3 0 426.7 0 400 0C373.3 0 346.7 0 320 0C293.3 0 266.7 0 240 0C213.3 0 186.7 0 160 0C133.3 0 106.7 0 80 0C53.3 0 26.7 0 13.3 0L0 0Z" fill="#657a86"></path><path d="M0 40L13.3 37.8C26.7 35.7 53.3 31.3 80 30.8C106.7 30.3 133.3 33.7 160 36.2C186.7 38.7 213.3 40.3 240 39.8C266.7 39.3 293.3 36.7 320 34.5C346.7 32.3 373.3 30.7 400 27.3C426.7 24 453.3 19 480 17.8C506.7 16.7 533.3 19.3 560 19.3C586.7 19.3 613.3 16.7 640 18.2C666.7 19.7 693.3 25.3 720 28.2C746.7 31 773.3 31 800 29C826.7 27 853.3 23 880 22.7C906.7 22.3 933.3 25.7 946.7 27.3L960 29L960 0L946.7 0C933.3 0 906.7 0 880 0C853.3 0 826.7 0 800 0C773.3 0 746.7 0 720 0C693.3 0 666.7 0 640 0C613.3 0 586.7 0 560 0C533.3 0 506.7 0 480 0C453.3 0 426.7 0 400 0C373.3 0 346.7 0 320 0C293.3 0 266.7 0 240 0C213.3 0 186.7 0 160 0C133.3 0 106.7 0 80 0C53.3 0 26.7 0 13.3 0L0 0Z" fill="#9dbbc1"></path><path d="M0 12L13.3 11.8C26.7 11.7 53.3 11.3 80 10.5C106.7 9.7 133.3 8.3 160 9.5C186.7 10.7 213.3 14.3 240 14.7C266.7 15 293.3 12 320 12C346.7 12 373.3 15 400 17.8C426.7 20.7 453.3 23.3 480 22C506.7 20.7 533.3 15.3 560 12.3C586.7 9.3 613.3 8.7 640 7.7C666.7 6.7 693.3 5.3 720 5.5C746.7 5.7 773.3 7.3 800 10.8C826.7 14.3 853.3 19.7 880 21.5C906.7 23.3 933.3 21.7 946.7 20.8L960 20L960 0L946.7 0C933.3 0 906.7 0 880 0C853.3 0 826.7 0 800 0C773.3 0 746.7 0 720 0C693.3 0 666.7 0 640 0C613.3 0 586.7 0 560 0C533.3 0 506.7 0 480 0C453.3 0 426.7 0 400 0C373.3 0 346.7 0 320 0C293.3 0 266.7 0 240 0C213.3 0 186.7 0 160 0C133.3 0 106.7 0 80 0C53.3 0 26.7 0 13.3 0L0 0Z" fill="#defffc"></path></svg>