<svg id="visual" viewBox="0 0 960 100" width="960" height="100" xmlns="http://www.w3.org/2000/svg" xmlns:xlink="http://www.w3.org/1999/xlink" version="1.1"><path d="M0 17L13.3 20.2C26.7 23.3 53.3 29.7 80 28.8C106.7 28 133.3 20 160 22.8C186.7 25.7 213.3 39.3 240 43.5C266.7 47.7 293.3 42.3 320 35.5C346.7 28.7 373.3 20.3 400 18.5C426.7 16.7 453.3 21.3 480 23.2C506.7 25 533.3 24 560 23.2C586.7 22.3 613.3 21.7 640 26.3C666.7 31 693.3 41 720 45.7C746.7 50.3 773.3 49.7 800 49.3C826.7 49 853.3 49 880 49.3C906.7 49.7 933.3 50.3 946.7 50.7L960 51L960 101L946.7 101C933.3 101 906.7 101 880 101C853.3 101 826.7 101 800 101C773.3 101 746.7 101 720 101C693.3 101 666.7 101 640 101C613.3 101 586.7 101 560 101C533.3 101 506.7 101 480 101C453.3 101 426.7 101 400 101C373.3 101 346.7 101 320 101C293.3 101 266.7 101 240 101C213.3 101 186.7 101 160 101C133.3 101 106.7 101 80 101C53.3 101 26.7 101 13.3 101L0 101Z" fill="#070617"></path><path d="M0 38L13.3 38.2C26.7 38.3 53.3 38.7 80 40.5C106.7 42.3 133.3 45.7 160 47C186.7 48.3 213.3 47.7 240 45.5C266.7 43.3 293.3 39.7 320 40.7C346.7 41.7 373.3 47.3 400 50C426.7 52.7 453.3 52.3 480 54.3C506.7 56.3 533.3 60.7 560 57.3C586.7 54 613.3 43 640 42.8C666.7 42.7 693.3 53.3 720 52.3C746.7 51.3 773.3 38.7 800 34.7C826.7 30.7 853.3 35.3 880 40C906.7 44.7 933.3 49.3 946.7 51.7L960 54L960 101L946.7 101C933.3 101 906.7 101 880 101C853.3 101 826.7 101 800 101C773.3 101 746.7 101 720 101C693.3 101 666.7 101 640 101C613.3 101 586.7 101 560 101C533.3 101 506.7 101 480 101C453.3 101 426.7 101 400 101C373.3 101 346.7 101 320 101C293.3 101 266.7 101 240 101C213.3 101 186.7 101 160 101C133.3 101 106.7 101 80 101C53.3 101 26.7 101 13.3 101L0 101Z" fill="#343f4c"></path><path d="M0 70L13.3 65.7C26.7 61.3 53.3 52.7 80 48.2C106.7 43.7 133.3 43.3 160 46.2C186.7 49 213.3 55 240 55.7C266.7 56.3 293.3 51.7 320 52.2C346.7 52.7 373.3 58.3 400 59.3C426.7 60.3 453.3 56.7 480 58.5C506.7 60.3 533.3 67.7 560 70.3C586.7 73 613.3 71 640 68.8C666.7 66.7 693.3 64.3 720 63C746.7 61.7 773.3 61.3 800 62.2C826.7 63 853.3 65 880 62.5C906.7 60 933.3 53 946.7 49.5L960 46L960 101L946.7 101C933.3 101 906.7 101 880 101C853.3 101 826.7 101 800 101C773.3 101 746.7 101 720 101C693.3 101 666.7 101 640 101C613.3 101 586.7 101 560 101C533.3 101 506.7 101 480 101C453.3 101 426.7 101 400 101C373.3 101 346.7 101 320 101C293.3 101 266.7 101 240 101C213.3 101 186.7 101 160 101C133.3 101 106.7 101 80 101C53.3 101 26.7 101 13.3 101L0 101Z" fill="#657a86"></path><path d="M0 76L13.3 74.3C26.7 72.7 53.3 69.3 80 69.2C106.7 69 133.3 72 160 73.5C186.7 75 213.3 75 240 73.8C266.7 72.7 293.3 70.3 320 67C346.7 63.7 373.3 59.3 400 57.5C426.7 55.7 453.3 56.3 480 58.8C506.7 61.3 533.3 65.7 560 70C586.7 74.3 613.3 78.7 640 77C666.7 75.3 693.3 67.7 720 66.3C746.7 65 773.3 70 800 72.5C826.7 75 853.3 75 880 75.2C906.7 75.3 933.3 75.7 946.7 75.8L960 76L960 101L946.7 101C933.3 101 906.7 101 880 101C853.3 101 826.7 101 800 101C773.3 101 746.7 101 720 101C693.3 101 666.7 101 640 101C613.3 101 586.7 101 560 101C533.3 101 506.7 101 480 101C453.3 101 426.7 101 400 101C373.3 101 346.7 101 320 101C293.3 101 266.7 101 240 101C213.3 101 186.7 101 160 101C133.3 101 106.7 101 80 101C53.3 101 26.7 101 13.3 101L0 101Z" fill="#9dbbc1"></path><path d="M0 92L13.3 90.3C26.7 88.7 53.3 85.3 80 82.8C106.7 80.3 133.3 78.7 160 77.7C186.7 76.7 213.3 76.3 240 76.7C266.7 77 293.3 78 320 80.8C346.7 83.7 373.3 88.3 400 89C426.7 89.7 453.3 86.3 480 85.5C506.7 84.7 533.3 86.3 560 86.5C586.7 86.7 613.3 85.3 640 84.2C666.7 83 693.3 82 720 82.2C746.7 82.3 773.3 83.7 800 82.2C826.7 80.7 853.3 76.3 880 75.5C906.7 74.7 933.3 77.3 946.7 78.7L960 80L960 101L946.7 101C933.3 101 906.7 101 880 101C853.3 101 826.7 101 800 101C773.3 101 746.7 101 720 101C693.3 101 666.7 101 640 101C613.3 101 586.7 101 560 101C533.3 101 506.7 101 480 101C453.3 101 426.7 101 400 101C373.3 101 346.7 101 320 101C293.3 101 266.7 101 240 101C213.3 101 186.7 101 160 101C133.3 101 106.7 101 80 101C53.3 101 26.7 101 13.3 101L0 101Z" fill="#defffc"></path></svg>