<?xml version="1.0" encoding="UTF-8" standalone="no"?>
<svg
   id="visual"
   viewBox="0 0 960 100"
   width="960"
   height="100"
   version="1.1"
   sodipodi:docname="layered-waves-haikei(2).svg"
   inkscape:version="1.3 (0e150ed6c4, 2023-07-21)"
   xmlns:inkscape="http://www.inkscape.org/namespaces/inkscape"
   xmlns:sodipodi="http://sodipodi.sourceforge.net/DTD/sodipodi-0.dtd"
   xmlns="http://www.w3.org/2000/svg"
   xmlns:svg="http://www.w3.org/2000/svg">
  <defs
     id="defs8" />
  <sodipodi:namedview
     id="namedview8"
     pagecolor="#ffffff"
     bordercolor="#000000"
     borderopacity="0.25"
     inkscape:showpageshadow="2"
     inkscape:pageopacity="0.0"
     inkscape:pagecheckerboard="0"
     inkscape:deskcolor="#d1d1d1"
     inkscape:zoom="1.6072917"
     inkscape:cx="480"
     inkscape:cy="99.857421"
     inkscape:window-width="2560"
     inkscape:window-height="1369"
     inkscape:window-x="-8"
     inkscape:window-y="-8"
     inkscape:window-maximized="1"
     inkscape:current-layer="visual" />
  <rect
     x="0"
     y="1"
     width="960"
     height="100"
     fill="#070617"
     id="rect1" />
  <path
     d="m 0,68 9.3,-0.7 c 9.4,-0.6 28,-2 46.9,-1 18.8,1 37.8,4.4 56.6,4.5 18.9,0.2 37.5,-2.8 56.4,-4.6 18.8,-1.9 37.8,-2.5 56.6,-1.2 18.9,1.3 37.5,4.7 56.4,6 18.8,1.3 37.8,0.7 56.6,1.8 18.9,1.2 37.5,4.2 56.4,5 18.8,0.9 37.8,-0.5 56.6,-0.5 18.9,0 37.5,1.4 56.4,-0.6 18.8,-2 37.8,-7.4 56.6,-6.2 18.9,1.2 37.5,8.8 56.4,8.5 18.8,-0.3 37.8,-8.7 56.6,-14 18.9,-5.3 37.5,-7.7 56.4,-4.5 18.8,3.2 37.8,11.8 56.6,15.3 18.9,3.5 37.5,1.9 56.4,-2.3 C 866,69.3 885,62.7 903.8,64.8 922.7,67 941.3,78 950.7,83.5 L 960,89 V 0 h -9.3 c -9.4,0 -28,0 -46.9,0 C 885,0 866,0 847.2,0 828.3,0 809.7,0 790.8,0 772,0 753,0 734.2,0 715.3,0 696.7,0 677.8,0 659,0 640,0 621.2,0 602.3,0 583.7,0 564.8,0 546,0 527,0 508.2,0 489.3,0 470.7,0 451.8,0 433,0 414,0 395.2,0 376.3,0 357.7,0 338.8,0 320,0 301,0 282.2,0 263.3,0 244.7,0 225.8,0 207,0 188,0 169.2,0 150.3,0 131.7,0 112.8,0 94,0 75,0 56.2,0 37.3,0 18.7,0 9.3,0 H 0 Z"
     fill="#070617"
     id="path1" />
  <path
     d="m 0,70 9.3,0.2 c 9.4,0.1 28,0.5 46.9,-1 18.8,-1.5 37.8,-4.9 56.6,-7.4 18.9,-2.5 37.5,-4.1 56.4,-2.3 18.8,1.8 37.8,7.2 56.6,8 18.9,0.8 37.5,-2.8 56.4,-5.3 18.8,-2.5 37.8,-3.9 56.6,-4.4 18.9,-0.5 37.5,-0.1 56.4,-0.6 18.8,-0.5 37.8,-1.9 56.6,0.6 18.9,2.5 37.5,8.9 56.4,12.4 18.8,3.5 37.8,4.1 56.6,2.5 C 583.7,71 602.3,67 621.2,64.5 640,62 659,61 677.8,58.5 696.7,56 715.3,52 734.2,50.2 753,48.3 772,48.7 790.8,54 c 18.9,5.3 37.5,15.7 56.4,20 18.8,4.3 37.8,2.7 56.6,-2.8 18.9,-5.5 37.5,-14.9 46.9,-19.5 L 960,47 V 0 h -9.3 c -9.4,0 -28,0 -46.9,0 C 885,0 866,0 847.2,0 828.3,0 809.7,0 790.8,0 772,0 753,0 734.2,0 715.3,0 696.7,0 677.8,0 659,0 640,0 621.2,0 602.3,0 583.7,0 564.8,0 546,0 527,0 508.2,0 489.3,0 470.7,0 451.8,0 433,0 414,0 395.2,0 376.3,0 357.7,0 338.8,0 320,0 301,0 282.2,0 263.3,0 244.7,0 225.8,0 207,0 188,0 169.2,0 150.3,0 131.7,0 112.8,0 94,0 75,0 56.2,0 37.3,0 18.7,0 9.3,0 H 0 Z"
     fill="#28202f"
     id="path2" />
  <path
     d="m 0,61 9.3,1 c 9.4,1 28,3 46.9,3.3 18.8,0.4 37.8,-1 56.6,-2 18.9,-1 37.5,-1.6 56.4,-0.5 18.8,1.2 37.8,4.2 56.6,0.9 18.9,-3.4 37.5,-13 56.4,-13.4 18.8,-0.3 37.8,8.7 56.6,8.9 18.9,0.1 37.5,-8.5 56.4,-9.7 18.8,-1.2 37.8,5.2 56.6,9.3 18.9,4.2 37.5,6.2 56.4,5.7 C 527,64 546,61 564.8,59.7 c 18.9,-1.4 37.5,-1 56.4,-0.2 18.8,0.8 37.8,2.2 56.6,4 18.9,1.8 37.5,4.2 56.4,4.5 18.8,0.3 37.8,-1.3 56.6,-5.3 18.9,-4 37.5,-10.4 56.4,-10 18.8,0.3 37.8,7.3 56.6,8 18.9,0.6 37.5,-5 46.9,-7.9 L 960,50 V 0 h -9.3 c -9.4,0 -28,0 -46.9,0 C 885,0 866,0 847.2,0 828.3,0 809.7,0 790.8,0 772,0 753,0 734.2,0 715.3,0 696.7,0 677.8,0 659,0 640,0 621.2,0 602.3,0 583.7,0 564.8,0 546,0 527,0 508.2,0 489.3,0 470.7,0 451.8,0 433,0 414,0 395.2,0 376.3,0 357.7,0 338.8,0 320,0 301,0 282.2,0 263.3,0 244.7,0 225.8,0 207,0 188,0 169.2,0 150.3,0 131.7,0 112.8,0 94,0 75,0 56.2,0 37.3,0 18.7,0 9.3,0 H 0 Z"
     fill="#4a3547"
     id="path3" />
  <path
     d="m 0,41 9.3,2 c 9.4,2 28,6 46.9,7.3 18.8,1.4 37.8,0 56.6,1 18.9,1 37.5,4.4 56.4,2.7 18.8,-1.7 37.8,-8.3 56.6,-9.7 18.9,-1.3 37.5,2.7 56.4,3.7 18.8,1 37.8,-1 56.6,-3.7 18.9,-2.6 37.5,-6 56.4,-4 18.8,2 37.8,9.4 56.6,13.2 18.9,3.8 37.5,4.2 56.4,0.3 C 527,50 546,42 564.8,38.5 583.7,35 602.3,36 621.2,37.7 c 18.8,1.6 37.8,4 56.6,6.1 18.9,2.2 37.5,4.2 56.4,3.7 C 753,47 772,44 790.8,41.5 809.7,39 828.3,37 847.2,38.5 866,40 885,45 903.8,48.8 c 18.9,3.9 37.5,6.5 46.9,7.9 L 960,58 V 0 h -9.3 c -9.4,0 -28,0 -46.9,0 C 885,0 866,0 847.2,0 828.3,0 809.7,0 790.8,0 772,0 753,0 734.2,0 715.3,0 696.7,0 677.8,0 659,0 640,0 621.2,0 602.3,0 583.7,0 564.8,0 546,0 527,0 508.2,0 489.3,0 470.7,0 451.8,0 433,0 414,0 395.2,0 376.3,0 357.7,0 338.8,0 320,0 301,0 282.2,0 263.3,0 244.7,0 225.8,0 207,0 188,0 169.2,0 150.3,0 131.7,0 112.8,0 94,0 75,0 56.2,0 37.3,0 18.7,0 9.3,0 H 0 Z"
     fill="#6f4d5c"
     id="path4" />
  <path
     d="M 0,46 9.3,45.5 C 18.7,45 37.3,44 56.2,44.5 75,45 94,47 112.8,46 c 18.9,-1 37.5,-5 56.4,-7 18.8,-2 37.8,-2 56.6,-3.2 18.9,-1.1 37.5,-3.5 56.4,-4.1 C 301,31 320,32 338.8,35 c 18.9,3 37.5,8 56.4,9.7 18.8,1.6 37.8,0 56.6,0 18.9,0 37.5,1.6 56.4,2.5 18.8,0.8 37.8,0.8 56.6,-2.5 18.9,-3.4 37.5,-10 56.4,-12 18.8,-2 37.8,0.6 56.6,1 18.9,0.3 37.5,-1.7 56.4,-0.7 18.8,1 37.8,5 56.6,6.8 18.9,1.9 37.5,1.5 56.4,0.5 18.8,-1 37.8,-2.6 56.6,-3.5 C 922.7,36 941.3,36 950.7,36 H 960 V 0 h -9.3 c -9.4,0 -28,0 -46.9,0 C 885,0 866,0 847.2,0 828.3,0 809.7,0 790.8,0 772,0 753,0 734.2,0 715.3,0 696.7,0 677.8,0 659,0 640,0 621.2,0 602.3,0 583.7,0 564.8,0 546,0 527,0 508.2,0 489.3,0 470.7,0 451.8,0 433,0 414,0 395.2,0 376.3,0 357.7,0 338.8,0 320,0 301,0 282.2,0 263.3,0 244.7,0 225.8,0 207,0 188,0 169.2,0 150.3,0 131.7,0 112.8,0 94,0 75,0 56.2,0 37.3,0 18.7,0 9.3,0 H 0 Z"
     fill="#95666f"
     id="path5" />
  <path
     d="m 0,38 9.3,-2 c 9.4,-2 28,-6 46.9,-9 18.8,-3 37.8,-5 56.6,-3.8 18.9,1.1 37.5,5.5 56.4,8.6 18.8,3.2 37.8,5.2 56.6,5.4 18.9,0.1 37.5,-1.5 56.4,-3.5 18.8,-2 37.8,-4.4 56.6,-3.7 18.9,0.7 37.5,4.3 56.4,4.8 18.8,0.5 37.8,-2.1 56.6,-3.6 18.9,-1.5 37.5,-1.9 56.4,-3.2 18.8,-1.3 37.8,-3.7 56.6,-3.5 18.9,0.2 37.5,2.8 56.4,4 18.8,1.2 37.8,0.8 56.6,0.2 18.9,-0.7 37.5,-1.7 56.4,-2.7 18.8,-1 37.8,-2 56.6,-0.8 18.9,1.1 37.5,4.5 56.4,6.3 18.8,1.8 37.8,2.2 56.6,3 18.9,0.8 37.5,2.2 46.9,2.8 L 960,38 V 0 h -9.3 c -9.4,0 -28,0 -46.9,0 C 885,0 866,0 847.2,0 828.3,0 809.7,0 790.8,0 772,0 753,0 734.2,0 715.3,0 696.7,0 677.8,0 659,0 640,0 621.2,0 602.3,0 583.7,0 564.8,0 546,0 527,0 508.2,0 489.3,0 470.7,0 451.8,0 433,0 414,0 395.2,0 376.3,0 357.7,0 338.8,0 320,0 301,0 282.2,0 263.3,0 244.7,0 225.8,0 207,0 188,0 169.2,0 150.3,0 131.7,0 112.8,0 94,0 75,0 56.2,0 37.3,0 18.7,0 9.3,0 H 0 Z"
     fill="#ba827f"
     id="path6" />
  <path
     d="m 0,26 9.3,-1 c 9.4,-1 28,-3 46.9,-3.7 18.8,-0.6 37.8,0 56.6,1.2 18.9,1.2 37.5,2.8 56.4,2.2 C 188,24 207,21 225.8,20.2 c 18.9,-0.9 37.5,0.5 56.4,0 18.8,-0.5 37.8,-2.9 56.6,-3.7 18.9,-0.8 37.5,-0.2 56.4,0.2 18.8,0.3 37.8,0.3 56.6,1 18.9,0.6 37.5,2 56.4,3.3 18.8,1.3 37.8,2.7 56.6,1.8 18.9,-0.8 37.5,-3.8 56.4,-5.1 18.8,-1.4 37.8,-1 56.6,-1.4 18.9,-0.3 37.5,-1.3 56.4,-1.3 18.8,0 37.8,1 56.6,2.7 18.9,1.6 37.5,4 56.4,4.5 18.8,0.5 37.8,-0.9 56.6,-0.2 18.9,0.7 37.5,3.3 46.9,4.7 L 960,28 V 0 h -9.3 c -9.4,0 -28,0 -46.9,0 C 885,0 866,0 847.2,0 828.3,0 809.7,0 790.8,0 772,0 753,0 734.2,0 715.3,0 696.7,0 677.8,0 659,0 640,0 621.2,0 602.3,0 583.7,0 564.8,0 546,0 527,0 508.2,0 489.3,0 470.7,0 451.8,0 433,0 414,0 395.2,0 376.3,0 357.7,0 338.8,0 320,0 301,0 282.2,0 263.3,0 244.7,0 225.8,0 207,0 188,0 169.2,0 150.3,0 131.7,0 112.8,0 94,0 75,0 56.2,0 37.3,0 18.7,0 9.3,0 H 0 Z"
     fill="#dba28f"
     id="path7" />
  <path
     d="M 0,10 9.3,9.5 C 18.7,9 37.3,8 56.2,7.7 c 18.8,-0.4 37.8,0 56.6,2 18.9,2 37.5,5.6 56.4,7.1 18.8,1.5 37.8,0.9 56.6,-0.5 18.9,-1.3 37.5,-3.3 56.4,-4.6 18.8,-1.4 37.8,-2 56.6,-2 18.9,0 37.5,0.6 56.4,0.6 18.8,0 37.8,-0.6 56.6,-0.1 18.9,0.5 37.5,2.1 56.4,1.8 C 527,11.7 546,9.3 564.8,9.2 583.7,9 602.3,11 621.2,12 c 18.8,1 37.8,1 56.6,0.7 18.9,-0.4 37.5,-1 56.4,-0.5 18.8,0.5 37.8,2.1 56.6,3.3 18.9,1.2 37.5,1.8 56.4,0.3 18.8,-1.5 37.8,-5.1 56.6,-5.6 18.9,-0.5 37.5,2.1 46.9,3.5 L 960,15 V 0 h -9.3 c -9.4,0 -28,0 -46.9,0 C 885,0 866,0 847.2,0 828.3,0 809.7,0 790.8,0 772,0 753,0 734.2,0 715.3,0 696.7,0 677.8,0 659,0 640,0 621.2,0 602.3,0 583.7,0 564.8,0 546,0 527,0 508.2,0 489.3,0 470.7,0 451.8,0 433,0 414,0 395.2,0 376.3,0 357.7,0 338.8,0 320,0 301,0 282.2,0 263.3,0 244.7,0 225.8,0 207,0 188,0 169.2,0 150.3,0 131.7,0 112.8,0 94,0 75,0 56.2,0 37.3,0 18.7,0 9.3,0 H 0 Z"
     fill="#f7c59f"
     id="path8" />
</svg>
