<svg id="visual" viewBox="0 0 960 100" width="960" height="100" xmlns="http://www.w3.org/2000/svg" xmlns:xlink="http://www.w3.org/1999/xlink" version="1.1"><path d="M0 49L13.3 52.2C26.7 55.3 53.3 61.7 80 62.5C106.7 63.3 133.3 58.7 160 58.2C186.7 57.7 213.3 61.3 240 60.8C266.7 60.3 293.3 55.7 320 59.5C346.7 63.3 373.3 75.7 400 75.5C426.7 75.3 453.3 62.7 480 56.3C506.7 50 533.3 50 560 53.3C586.7 56.7 613.3 63.3 640 67.5C666.7 71.7 693.3 73.3 720 74C746.7 74.7 773.3 74.3 800 70.8C826.7 67.3 853.3 60.7 880 62.5C906.7 64.3 933.3 74.7 946.7 79.8L960 85L960 0L946.7 0C933.3 0 906.7 0 880 0C853.3 0 826.7 0 800 0C773.3 0 746.7 0 720 0C693.3 0 666.7 0 640 0C613.3 0 586.7 0 560 0C533.3 0 506.7 0 480 0C453.3 0 426.7 0 400 0C373.3 0 346.7 0 320 0C293.3 0 266.7 0 240 0C213.3 0 186.7 0 160 0C133.3 0 106.7 0 80 0C53.3 0 26.7 0 13.3 0L0 0Z" fill="#070617"></path><path d="M0 45L13.3 46.7C26.7 48.3 53.3 51.7 80 50.8C106.7 50 133.3 45 160 42.7C186.7 40.3 213.3 40.7 240 41.7C266.7 42.7 293.3 44.3 320 44.8C346.7 45.3 373.3 44.7 400 42.8C426.7 41 453.3 38 480 42.5C506.7 47 533.3 59 560 59.3C586.7 59.7 613.3 48.3 640 45.2C666.7 42 693.3 47 720 51.5C746.7 56 773.3 60 800 63.3C826.7 66.7 853.3 69.3 880 69C906.7 68.7 933.3 65.3 946.7 63.7L960 62L960 0L946.7 0C933.3 0 906.7 0 880 0C853.3 0 826.7 0 800 0C773.3 0 746.7 0 720 0C693.3 0 666.7 0 640 0C613.3 0 586.7 0 560 0C533.3 0 506.7 0 480 0C453.3 0 426.7 0 400 0C373.3 0 346.7 0 320 0C293.3 0 266.7 0 240 0C213.3 0 186.7 0 160 0C133.3 0 106.7 0 80 0C53.3 0 26.7 0 13.3 0L0 0Z" fill="#30183b"></path><path d="M0 57L13.3 53.5C26.7 50 53.3 43 80 39.2C106.7 35.3 133.3 34.7 160 37.7C186.7 40.7 213.3 47.3 240 47.3C266.7 47.3 293.3 40.7 320 35.8C346.7 31 373.3 28 400 26.2C426.7 24.3 453.3 23.7 480 28.8C506.7 34 533.3 45 560 47.7C586.7 50.3 613.3 44.7 640 39.8C666.7 35 693.3 31 720 28.8C746.7 26.7 773.3 26.3 800 28C826.7 29.7 853.3 33.3 880 33.8C906.7 34.3 933.3 31.7 946.7 30.3L960 29L960 0L946.7 0C933.3 0 906.7 0 880 0C853.3 0 826.7 0 800 0C773.3 0 746.7 0 720 0C693.3 0 666.7 0 640 0C613.3 0 586.7 0 560 0C533.3 0 506.7 0 480 0C453.3 0 426.7 0 400 0C373.3 0 346.7 0 320 0C293.3 0 266.7 0 240 0C213.3 0 186.7 0 160 0C133.3 0 106.7 0 80 0C53.3 0 26.7 0 13.3 0L0 0Z" fill="#6b164e"></path><path d="M0 38L13.3 34.7C26.7 31.3 53.3 24.7 80 21C106.7 17.3 133.3 16.7 160 20.8C186.7 25 213.3 34 240 36.7C266.7 39.3 293.3 35.7 320 33.7C346.7 31.7 373.3 31.3 400 31C426.7 30.7 453.3 30.3 480 27.7C506.7 25 533.3 20 560 17.5C586.7 15 613.3 15 640 15.2C666.7 15.3 693.3 15.7 720 16.2C746.7 16.7 773.3 17.3 800 17.8C826.7 18.3 853.3 18.7 880 19.7C906.7 20.7 933.3 22.3 946.7 23.2L960 24L960 0L946.7 0C933.3 0 906.7 0 880 0C853.3 0 826.7 0 800 0C773.3 0 746.7 0 720 0C693.3 0 666.7 0 640 0C613.3 0 586.7 0 560 0C533.3 0 506.7 0 480 0C453.3 0 426.7 0 400 0C373.3 0 346.7 0 320 0C293.3 0 266.7 0 240 0C213.3 0 186.7 0 160 0C133.3 0 106.7 0 80 0C53.3 0 26.7 0 13.3 0L0 0Z" fill="#a80448"></path><path d="M0 14L13.3 15.7C26.7 17.3 53.3 20.7 80 21.8C106.7 23 133.3 22 160 19.2C186.7 16.3 213.3 11.7 240 11.8C266.7 12 293.3 17 320 20.2C346.7 23.3 373.3 24.7 400 25.2C426.7 25.7 453.3 25.3 480 24.8C506.7 24.3 533.3 23.7 560 22.7C586.7 21.7 613.3 20.3 640 17.7C666.7 15 693.3 11 720 10.5C746.7 10 773.3 13 800 13.5C826.7 14 853.3 12 880 12.5C906.7 13 933.3 16 946.7 17.5L960 19L960 0L946.7 0C933.3 0 906.7 0 880 0C853.3 0 826.7 0 800 0C773.3 0 746.7 0 720 0C693.3 0 666.7 0 640 0C613.3 0 586.7 0 560 0C533.3 0 506.7 0 480 0C453.3 0 426.7 0 400 0C373.3 0 346.7 0 320 0C293.3 0 266.7 0 240 0C213.3 0 186.7 0 160 0C133.3 0 106.7 0 80 0C53.3 0 26.7 0 13.3 0L0 0Z" fill="#d62828"></path></svg>