<svg id="visual" viewBox="0 0 960 100" width="960" height="100" xmlns="http://www.w3.org/2000/svg" xmlns:xlink="http://www.w3.org/1999/xlink" version="1.1"><path d="M0 46L13.3 52.5C26.7 59 53.3 72 80 74.8C106.7 77.7 133.3 70.3 160 69.2C186.7 68 213.3 73 240 75C266.7 77 293.3 76 320 75.2C346.7 74.3 373.3 73.7 400 74.2C426.7 74.7 453.3 76.3 480 73.5C506.7 70.7 533.3 63.3 560 64.3C586.7 65.3 613.3 74.7 640 76.7C666.7 78.7 693.3 73.3 720 68.8C746.7 64.3 773.3 60.7 800 58.5C826.7 56.3 853.3 55.7 880 58.7C906.7 61.7 933.3 68.3 946.7 71.7L960 75L960 0L946.7 0C933.3 0 906.7 0 880 0C853.3 0 826.7 0 800 0C773.3 0 746.7 0 720 0C693.3 0 666.7 0 640 0C613.3 0 586.7 0 560 0C533.3 0 506.7 0 480 0C453.3 0 426.7 0 400 0C373.3 0 346.7 0 320 0C293.3 0 266.7 0 240 0C213.3 0 186.7 0 160 0C133.3 0 106.7 0 80 0C53.3 0 26.7 0 13.3 0L0 0Z" fill="#070617"></path><path d="M0 71L13.3 67.2C26.7 63.3 53.3 55.7 80 53.5C106.7 51.3 133.3 54.7 160 55.7C186.7 56.7 213.3 55.3 240 56.7C266.7 58 293.3 62 320 58.7C346.7 55.3 373.3 44.7 400 43.5C426.7 42.3 453.3 50.7 480 50.7C506.7 50.7 533.3 42.3 560 43.3C586.7 44.3 613.3 54.7 640 57.2C666.7 59.7 693.3 54.3 720 52.3C746.7 50.3 773.3 51.7 800 49.2C826.7 46.7 853.3 40.3 880 38.5C906.7 36.7 933.3 39.3 946.7 40.7L960 42L960 0L946.7 0C933.3 0 906.7 0 880 0C853.3 0 826.7 0 800 0C773.3 0 746.7 0 720 0C693.3 0 666.7 0 640 0C613.3 0 586.7 0 560 0C533.3 0 506.7 0 480 0C453.3 0 426.7 0 400 0C373.3 0 346.7 0 320 0C293.3 0 266.7 0 240 0C213.3 0 186.7 0 160 0C133.3 0 106.7 0 80 0C53.3 0 26.7 0 13.3 0L0 0Z" fill="#232432"></path><path d="M0 50L13.3 48.8C26.7 47.7 53.3 45.3 80 41.8C106.7 38.3 133.3 33.7 160 34.8C186.7 36 213.3 43 240 44.8C266.7 46.7 293.3 43.3 320 42.3C346.7 41.3 373.3 42.7 400 43.2C426.7 43.7 453.3 43.3 480 39.8C506.7 36.3 533.3 29.7 560 27.5C586.7 25.3 613.3 27.7 640 30C666.7 32.3 693.3 34.7 720 34C746.7 33.3 773.3 29.7 800 28C826.7 26.3 853.3 26.7 880 31C906.7 35.3 933.3 43.7 946.7 47.8L960 52L960 0L946.7 0C933.3 0 906.7 0 880 0C853.3 0 826.7 0 800 0C773.3 0 746.7 0 720 0C693.3 0 666.7 0 640 0C613.3 0 586.7 0 560 0C533.3 0 506.7 0 480 0C453.3 0 426.7 0 400 0C373.3 0 346.7 0 320 0C293.3 0 266.7 0 240 0C213.3 0 186.7 0 160 0C133.3 0 106.7 0 80 0C53.3 0 26.7 0 13.3 0L0 0Z" fill="#3d3f50"></path><path d="M0 28L13.3 28.7C26.7 29.3 53.3 30.7 80 28.7C106.7 26.7 133.3 21.3 160 22.5C186.7 23.7 213.3 31.3 240 31.3C266.7 31.3 293.3 23.7 320 21.2C346.7 18.7 373.3 21.3 400 21.5C426.7 21.7 453.3 19.3 480 22C506.7 24.7 533.3 32.3 560 34.8C586.7 37.3 613.3 34.7 640 32.5C666.7 30.3 693.3 28.7 720 29.8C746.7 31 773.3 35 800 37.2C826.7 39.3 853.3 39.7 880 40C906.7 40.3 933.3 40.7 946.7 40.8L960 41L960 0L946.7 0C933.3 0 906.7 0 880 0C853.3 0 826.7 0 800 0C773.3 0 746.7 0 720 0C693.3 0 666.7 0 640 0C613.3 0 586.7 0 560 0C533.3 0 506.7 0 480 0C453.3 0 426.7 0 400 0C373.3 0 346.7 0 320 0C293.3 0 266.7 0 240 0C213.3 0 186.7 0 160 0C133.3 0 106.7 0 80 0C53.3 0 26.7 0 13.3 0L0 0Z" fill="#595c70"></path><path d="M0 16L13.3 17.3C26.7 18.7 53.3 21.3 80 21.5C106.7 21.7 133.3 19.3 160 16.2C186.7 13 213.3 9 240 7C266.7 5 293.3 5 320 8C346.7 11 373.3 17 400 18C426.7 19 453.3 15 480 15.3C506.7 15.7 533.3 20.3 560 22.7C586.7 25 613.3 25 640 24C666.7 23 693.3 21 720 21C746.7 21 773.3 23 800 24.3C826.7 25.7 853.3 26.3 880 24C906.7 21.7 933.3 16.3 946.7 13.7L960 11L960 0L946.7 0C933.3 0 906.7 0 880 0C853.3 0 826.7 0 800 0C773.3 0 746.7 0 720 0C693.3 0 666.7 0 640 0C613.3 0 586.7 0 560 0C533.3 0 506.7 0 480 0C453.3 0 426.7 0 400 0C373.3 0 346.7 0 320 0C293.3 0 266.7 0 240 0C213.3 0 186.7 0 160 0C133.3 0 106.7 0 80 0C53.3 0 26.7 0 13.3 0L0 0Z" fill="#767b91"></path></svg>