<svg id="visual" viewBox="0 0 960 100" width="960" height="100" xmlns="http://www.w3.org/2000/svg" xmlns:xlink="http://www.w3.org/1999/xlink" version="1.1"><rect x="0" y="0" width="960" height="100" fill="#070617"></rect><path d="M0 77L9.3 73.2C18.7 69.3 37.3 61.7 56.2 57.3C75 53 94 52 112.8 51.8C131.7 51.7 150.3 52.3 169.2 53.2C188 54 207 55 225.8 58.5C244.7 62 263.3 68 282.2 69.8C301 71.7 320 69.3 338.8 68.7C357.7 68 376.3 69 395.2 68C414 67 433 64 451.8 65.7C470.7 67.3 489.3 73.7 508.2 72C527 70.3 546 60.7 564.8 58.8C583.7 57 602.3 63 621.2 67.7C640 72.3 659 75.7 677.8 73.5C696.7 71.3 715.3 63.7 734.2 61.2C753 58.7 772 61.3 790.8 65.8C809.7 70.3 828.3 76.7 847.2 78.8C866 81 885 79 903.8 75.7C922.7 72.3 941.3 67.7 950.7 65.3L960 63L960 0L950.7 0C941.3 0 922.7 0 903.8 0C885 0 866 0 847.2 0C828.3 0 809.7 0 790.8 0C772 0 753 0 734.2 0C715.3 0 696.7 0 677.8 0C659 0 640 0 621.2 0C602.3 0 583.7 0 564.8 0C546 0 527 0 508.2 0C489.3 0 470.7 0 451.8 0C433 0 414 0 395.2 0C376.3 0 357.7 0 338.8 0C320 0 301 0 282.2 0C263.3 0 244.7 0 225.8 0C207 0 188 0 169.2 0C150.3 0 131.7 0 112.8 0C94 0 75 0 56.2 0C37.3 0 18.7 0 9.3 0L0 0Z" fill="#070617"></path><path d="M0 46L9.3 51C18.7 56 37.3 66 56.2 69.3C75 72.7 94 69.3 112.8 67.7C131.7 66 150.3 66 169.2 66C188 66 207 66 225.8 66.3C244.7 66.7 263.3 67.3 282.2 65.5C301 63.7 320 59.3 338.8 56.3C357.7 53.3 376.3 51.7 395.2 53.2C414 54.7 433 59.3 451.8 61.7C470.7 64 489.3 64 508.2 66C527 68 546 72 564.8 70.7C583.7 69.3 602.3 62.7 621.2 57.5C640 52.3 659 48.7 677.8 46.8C696.7 45 715.3 45 734.2 47.8C753 50.7 772 56.3 790.8 59.3C809.7 62.3 828.3 62.7 847.2 63.8C866 65 885 67 903.8 67.3C922.7 67.7 941.3 66.3 950.7 65.7L960 65L960 0L950.7 0C941.3 0 922.7 0 903.8 0C885 0 866 0 847.2 0C828.3 0 809.7 0 790.8 0C772 0 753 0 734.2 0C715.3 0 696.7 0 677.8 0C659 0 640 0 621.2 0C602.3 0 583.7 0 564.8 0C546 0 527 0 508.2 0C489.3 0 470.7 0 451.8 0C433 0 414 0 395.2 0C376.3 0 357.7 0 338.8 0C320 0 301 0 282.2 0C263.3 0 244.7 0 225.8 0C207 0 188 0 169.2 0C150.3 0 131.7 0 112.8 0C94 0 75 0 56.2 0C37.3 0 18.7 0 9.3 0L0 0Z" fill="#1d142d"></path><path d="M0 54L9.3 53.7C18.7 53.3 37.3 52.7 56.2 49.8C75 47 94 42 112.8 43C131.7 44 150.3 51 169.2 54.3C188 57.7 207 57.3 225.8 58.5C244.7 59.7 263.3 62.3 282.2 62.5C301 62.7 320 60.3 338.8 58.5C357.7 56.7 376.3 55.3 395.2 53.2C414 51 433 48 451.8 45.7C470.7 43.3 489.3 41.7 508.2 40.8C527 40 546 40 564.8 41.7C583.7 43.3 602.3 46.7 621.2 50.5C640 54.3 659 58.7 677.8 59C696.7 59.3 715.3 55.7 734.2 55.2C753 54.7 772 57.3 790.8 58.8C809.7 60.3 828.3 60.7 847.2 59.7C866 58.7 885 56.3 903.8 53.5C922.7 50.7 941.3 47.3 950.7 45.7L960 44L960 0L950.7 0C941.3 0 922.7 0 903.8 0C885 0 866 0 847.2 0C828.3 0 809.7 0 790.8 0C772 0 753 0 734.2 0C715.3 0 696.7 0 677.8 0C659 0 640 0 621.2 0C602.3 0 583.7 0 564.8 0C546 0 527 0 508.2 0C489.3 0 470.7 0 451.8 0C433 0 414 0 395.2 0C376.3 0 357.7 0 338.8 0C320 0 301 0 282.2 0C263.3 0 244.7 0 225.8 0C207 0 188 0 169.2 0C150.3 0 131.7 0 112.8 0C94 0 75 0 56.2 0C37.3 0 18.7 0 9.3 0L0 0Z" fill="#38193f"></path><path d="M0 48L9.3 47.2C18.7 46.3 37.3 44.7 56.2 46.2C75 47.7 94 52.3 112.8 50.2C131.7 48 150.3 39 169.2 37.7C188 36.3 207 42.7 225.8 44.8C244.7 47 263.3 45 282.2 44.3C301 43.7 320 44.3 338.8 42.8C357.7 41.3 376.3 37.7 395.2 38C414 38.3 433 42.7 451.8 46.3C470.7 50 489.3 53 508.2 52.8C527 52.7 546 49.3 564.8 45.3C583.7 41.3 602.3 36.7 621.2 34.8C640 33 659 34 677.8 37.3C696.7 40.7 715.3 46.3 734.2 46.3C753 46.3 772 40.7 790.8 41.5C809.7 42.3 828.3 49.7 847.2 51.3C866 53 885 49 903.8 46.7C922.7 44.3 941.3 43.7 950.7 43.3L960 43L960 0L950.7 0C941.3 0 922.7 0 903.8 0C885 0 866 0 847.2 0C828.3 0 809.7 0 790.8 0C772 0 753 0 734.2 0C715.3 0 696.7 0 677.8 0C659 0 640 0 621.2 0C602.3 0 583.7 0 564.8 0C546 0 527 0 508.2 0C489.3 0 470.7 0 451.8 0C433 0 414 0 395.2 0C376.3 0 357.7 0 338.8 0C320 0 301 0 282.2 0C263.3 0 244.7 0 225.8 0C207 0 188 0 169.2 0C150.3 0 131.7 0 112.8 0C94 0 75 0 56.2 0C37.3 0 18.7 0 9.3 0L0 0Z" fill="#59194b"></path><path d="M0 42L9.3 41.5C18.7 41 37.3 40 56.2 38.7C75 37.3 94 35.7 112.8 35C131.7 34.3 150.3 34.7 169.2 33.5C188 32.3 207 29.7 225.8 29.5C244.7 29.3 263.3 31.7 282.2 32.7C301 33.7 320 33.3 338.8 33.5C357.7 33.7 376.3 34.3 395.2 36.2C414 38 433 41 451.8 42.8C470.7 44.7 489.3 45.3 508.2 43.3C527 41.3 546 36.7 564.8 36C583.7 35.3 602.3 38.7 621.2 37.5C640 36.3 659 30.7 677.8 29.3C696.7 28 715.3 31 734.2 33C753 35 772 36 790.8 34.5C809.7 33 828.3 29 847.2 28.7C866 28.3 885 31.7 903.8 33.3C922.7 35 941.3 35 950.7 35L960 35L960 0L950.7 0C941.3 0 922.7 0 903.8 0C885 0 866 0 847.2 0C828.3 0 809.7 0 790.8 0C772 0 753 0 734.2 0C715.3 0 696.7 0 677.8 0C659 0 640 0 621.2 0C602.3 0 583.7 0 564.8 0C546 0 527 0 508.2 0C489.3 0 470.7 0 451.8 0C433 0 414 0 395.2 0C376.3 0 357.7 0 338.8 0C320 0 301 0 282.2 0C263.3 0 244.7 0 225.8 0C207 0 188 0 169.2 0C150.3 0 131.7 0 112.8 0C94 0 75 0 56.2 0C37.3 0 18.7 0 9.3 0L0 0Z" fill="#7d124f"></path><path d="M0 36L9.3 35C18.7 34 37.3 32 56.2 30.8C75 29.7 94 29.3 112.8 27.8C131.7 26.3 150.3 23.7 169.2 25C188 26.3 207 31.7 225.8 32.5C244.7 33.3 263.3 29.7 282.2 27.7C301 25.7 320 25.3 338.8 24C357.7 22.7 376.3 20.3 395.2 22C414 23.7 433 29.3 451.8 30.3C470.7 31.3 489.3 27.7 508.2 26.7C527 25.7 546 27.3 564.8 28.5C583.7 29.7 602.3 30.3 621.2 28.7C640 27 659 23 677.8 23.3C696.7 23.7 715.3 28.3 734.2 31.2C753 34 772 35 790.8 32.8C809.7 30.7 828.3 25.3 847.2 23C866 20.7 885 21.3 903.8 21.8C922.7 22.3 941.3 22.7 950.7 22.8L960 23L960 0L950.7 0C941.3 0 922.7 0 903.8 0C885 0 866 0 847.2 0C828.3 0 809.7 0 790.8 0C772 0 753 0 734.2 0C715.3 0 696.7 0 677.8 0C659 0 640 0 621.2 0C602.3 0 583.7 0 564.8 0C546 0 527 0 508.2 0C489.3 0 470.7 0 451.8 0C433 0 414 0 395.2 0C376.3 0 357.7 0 338.8 0C320 0 301 0 282.2 0C263.3 0 244.7 0 225.8 0C207 0 188 0 169.2 0C150.3 0 131.7 0 112.8 0C94 0 75 0 56.2 0C37.3 0 18.7 0 9.3 0L0 0Z" fill="#a0064a"></path><path d="M0 15L9.3 15.3C18.7 15.7 37.3 16.3 56.2 16.8C75 17.3 94 17.7 112.8 18.8C131.7 20 150.3 22 169.2 22.8C188 23.7 207 23.3 225.8 22C244.7 20.7 263.3 18.3 282.2 17.8C301 17.3 320 18.7 338.8 18.3C357.7 18 376.3 16 395.2 14.8C414 13.7 433 13.3 451.8 14C470.7 14.7 489.3 16.3 508.2 16.3C527 16.3 546 14.7 564.8 14C583.7 13.3 602.3 13.7 621.2 15.2C640 16.7 659 19.3 677.8 19.7C696.7 20 715.3 18 734.2 17.3C753 16.7 772 17.3 790.8 16.7C809.7 16 828.3 14 847.2 12.8C866 11.7 885 11.3 903.8 11.2C922.7 11 941.3 11 950.7 11L960 11L960 0L950.7 0C941.3 0 922.7 0 903.8 0C885 0 866 0 847.2 0C828.3 0 809.7 0 790.8 0C772 0 753 0 734.2 0C715.3 0 696.7 0 677.8 0C659 0 640 0 621.2 0C602.3 0 583.7 0 564.8 0C546 0 527 0 508.2 0C489.3 0 470.7 0 451.8 0C433 0 414 0 395.2 0C376.3 0 357.7 0 338.8 0C320 0 301 0 282.2 0C263.3 0 244.7 0 225.8 0C207 0 188 0 169.2 0C150.3 0 131.7 0 112.8 0C94 0 75 0 56.2 0C37.3 0 18.7 0 9.3 0L0 0Z" fill="#be0b3d"></path><path d="M0 14L9.3 14.3C18.7 14.7 37.3 15.3 56.2 14C75 12.7 94 9.3 112.8 8.8C131.7 8.3 150.3 10.7 169.2 10.7C188 10.7 207 8.3 225.8 7C244.7 5.7 263.3 5.3 282.2 5.3C301 5.3 320 5.7 338.8 6.7C357.7 7.7 376.3 9.3 395.2 11C414 12.7 433 14.3 451.8 14.2C470.7 14 489.3 12 508.2 10C527 8 546 6 564.8 5C583.7 4 602.3 4 621.2 5C640 6 659 8 677.8 8.3C696.7 8.7 715.3 7.3 734.2 8.5C753 9.7 772 13.3 790.8 14.2C809.7 15 828.3 13 847.2 11.8C866 10.7 885 10.3 903.8 10C922.7 9.7 941.3 9.3 950.7 9.2L960 9L960 0L950.7 0C941.3 0 922.7 0 903.8 0C885 0 866 0 847.2 0C828.3 0 809.7 0 790.8 0C772 0 753 0 734.2 0C715.3 0 696.7 0 677.8 0C659 0 640 0 621.2 0C602.3 0 583.7 0 564.8 0C546 0 527 0 508.2 0C489.3 0 470.7 0 451.8 0C433 0 414 0 395.2 0C376.3 0 357.7 0 338.8 0C320 0 301 0 282.2 0C263.3 0 244.7 0 225.8 0C207 0 188 0 169.2 0C150.3 0 131.7 0 112.8 0C94 0 75 0 56.2 0C37.3 0 18.7 0 9.3 0L0 0Z" fill="#d62828"></path></svg>