<svg id="visual" viewBox="0 0 960 100" width="960" height="100" xmlns="http://www.w3.org/2000/svg" xmlns:xlink="http://www.w3.org/1999/xlink" version="1.1"><rect x="0" y="0" width="960" height="100" fill="#070617"></rect><path d="M0 21L9.3 20C18.7 19 37.3 17 56.2 19.3C75 21.7 94 28.3 112.8 31.7C131.7 35 150.3 35 169.2 36.5C188 38 207 41 225.8 41.8C244.7 42.7 263.3 41.3 282.2 40.3C301 39.3 320 38.7 338.8 34.3C357.7 30 376.3 22 395.2 23.3C414 24.7 433 35.3 451.8 35C470.7 34.7 489.3 23.3 508.2 20.8C527 18.3 546 24.7 564.8 29.8C583.7 35 602.3 39 621.2 36C640 33 659 23 677.8 20.3C696.7 17.7 715.3 22.3 734.2 23.2C753 24 772 21 790.8 18.8C809.7 16.7 828.3 15.3 847.2 16.3C866 17.3 885 20.7 903.8 25.3C922.7 30 941.3 36 950.7 39L960 42L960 101L950.7 101C941.3 101 922.7 101 903.8 101C885 101 866 101 847.2 101C828.3 101 809.7 101 790.8 101C772 101 753 101 734.2 101C715.3 101 696.7 101 677.8 101C659 101 640 101 621.2 101C602.3 101 583.7 101 564.8 101C546 101 527 101 508.2 101C489.3 101 470.7 101 451.8 101C433 101 414 101 395.2 101C376.3 101 357.7 101 338.8 101C320 101 301 101 282.2 101C263.3 101 244.7 101 225.8 101C207 101 188 101 169.2 101C150.3 101 131.7 101 112.8 101C94 101 75 101 56.2 101C37.3 101 18.7 101 9.3 101L0 101Z" fill="#070617"></path><path d="M0 40L9.3 41.8C18.7 43.7 37.3 47.3 56.2 45.2C75 43 94 35 112.8 33.3C131.7 31.7 150.3 36.3 169.2 39.2C188 42 207 43 225.8 45.2C244.7 47.3 263.3 50.7 282.2 49.3C301 48 320 42 338.8 38.7C357.7 35.3 376.3 34.7 395.2 32.8C414 31 433 28 451.8 26C470.7 24 489.3 23 508.2 23.8C527 24.7 546 27.3 564.8 30.5C583.7 33.7 602.3 37.3 621.2 37.7C640 38 659 35 677.8 36.7C696.7 38.3 715.3 44.7 734.2 46.5C753 48.3 772 45.7 790.8 42.8C809.7 40 828.3 37 847.2 35.8C866 34.7 885 35.3 903.8 36.8C922.7 38.3 941.3 40.7 950.7 41.8L960 43L960 101L950.7 101C941.3 101 922.7 101 903.8 101C885 101 866 101 847.2 101C828.3 101 809.7 101 790.8 101C772 101 753 101 734.2 101C715.3 101 696.7 101 677.8 101C659 101 640 101 621.2 101C602.3 101 583.7 101 564.8 101C546 101 527 101 508.2 101C489.3 101 470.7 101 451.8 101C433 101 414 101 395.2 101C376.3 101 357.7 101 338.8 101C320 101 301 101 282.2 101C263.3 101 244.7 101 225.8 101C207 101 188 101 169.2 101C150.3 101 131.7 101 112.8 101C94 101 75 101 56.2 101C37.3 101 18.7 101 9.3 101L0 101Z" fill="#222734"></path><path d="M0 54L9.3 54.2C18.7 54.3 37.3 54.7 56.2 54C75 53.3 94 51.7 112.8 50C131.7 48.3 150.3 46.7 169.2 44.8C188 43 207 41 225.8 38.8C244.7 36.7 263.3 34.3 282.2 35.3C301 36.3 320 40.7 338.8 41.5C357.7 42.3 376.3 39.7 395.2 37.8C414 36 433 35 451.8 36.3C470.7 37.7 489.3 41.3 508.2 44.5C527 47.7 546 50.3 564.8 50.8C583.7 51.3 602.3 49.7 621.2 50C640 50.3 659 52.7 677.8 50.7C696.7 48.7 715.3 42.3 734.2 42.7C753 43 772 50 790.8 49.7C809.7 49.3 828.3 41.7 847.2 41.5C866 41.3 885 48.7 903.8 49.7C922.7 50.7 941.3 45.3 950.7 42.7L960 40L960 101L950.7 101C941.3 101 922.7 101 903.8 101C885 101 866 101 847.2 101C828.3 101 809.7 101 790.8 101C772 101 753 101 734.2 101C715.3 101 696.7 101 677.8 101C659 101 640 101 621.2 101C602.3 101 583.7 101 564.8 101C546 101 527 101 508.2 101C489.3 101 470.7 101 451.8 101C433 101 414 101 395.2 101C376.3 101 357.7 101 338.8 101C320 101 301 101 282.2 101C263.3 101 244.7 101 225.8 101C207 101 188 101 169.2 101C150.3 101 131.7 101 112.8 101C94 101 75 101 56.2 101C37.3 101 18.7 101 9.3 101L0 101Z" fill="#3b4754"></path><path d="M0 45L9.3 44.5C18.7 44 37.3 43 56.2 46.7C75 50.3 94 58.7 112.8 62.3C131.7 66 150.3 65 169.2 62.2C188 59.3 207 54.7 225.8 54C244.7 53.3 263.3 56.7 282.2 55.2C301 53.7 320 47.3 338.8 48.5C357.7 49.7 376.3 58.3 395.2 59C414 59.7 433 52.3 451.8 49C470.7 45.7 489.3 46.3 508.2 48.5C527 50.7 546 54.3 564.8 55.7C583.7 57 602.3 56 621.2 54C640 52 659 49 677.8 48.7C696.7 48.3 715.3 50.7 734.2 50.2C753 49.7 772 46.3 790.8 46.8C809.7 47.3 828.3 51.7 847.2 55.2C866 58.7 885 61.3 903.8 63C922.7 64.7 941.3 65.3 950.7 65.7L960 66L960 101L950.7 101C941.3 101 922.7 101 903.8 101C885 101 866 101 847.2 101C828.3 101 809.7 101 790.8 101C772 101 753 101 734.2 101C715.3 101 696.7 101 677.8 101C659 101 640 101 621.2 101C602.3 101 583.7 101 564.8 101C546 101 527 101 508.2 101C489.3 101 470.7 101 451.8 101C433 101 414 101 395.2 101C376.3 101 357.7 101 338.8 101C320 101 301 101 282.2 101C263.3 101 244.7 101 225.8 101C207 101 188 101 169.2 101C150.3 101 131.7 101 112.8 101C94 101 75 101 56.2 101C37.3 101 18.7 101 9.3 101L0 101Z" fill="#566875"></path><path d="M0 53L9.3 55.8C18.7 58.7 37.3 64.3 56.2 66.8C75 69.3 94 68.7 112.8 67.8C131.7 67 150.3 66 169.2 66.7C188 67.3 207 69.7 225.8 71.2C244.7 72.7 263.3 73.3 282.2 71.7C301 70 320 66 338.8 62.5C357.7 59 376.3 56 395.2 55.8C414 55.7 433 58.3 451.8 59C470.7 59.7 489.3 58.3 508.2 56.8C527 55.3 546 53.7 564.8 56.3C583.7 59 602.3 66 621.2 66C640 66 659 59 677.8 57.8C696.7 56.7 715.3 61.3 734.2 62.7C753 64 772 62 790.8 61.7C809.7 61.3 828.3 62.7 847.2 64C866 65.3 885 66.7 903.8 64.8C922.7 63 941.3 58 950.7 55.5L960 53L960 101L950.7 101C941.3 101 922.7 101 903.8 101C885 101 866 101 847.2 101C828.3 101 809.7 101 790.8 101C772 101 753 101 734.2 101C715.3 101 696.7 101 677.8 101C659 101 640 101 621.2 101C602.3 101 583.7 101 564.8 101C546 101 527 101 508.2 101C489.3 101 470.7 101 451.8 101C433 101 414 101 395.2 101C376.3 101 357.7 101 338.8 101C320 101 301 101 282.2 101C263.3 101 244.7 101 225.8 101C207 101 188 101 169.2 101C150.3 101 131.7 101 112.8 101C94 101 75 101 56.2 101C37.3 101 18.7 101 9.3 101L0 101Z" fill="#748c97"></path><path d="M0 80L9.3 77.2C18.7 74.3 37.3 68.7 56.2 66.5C75 64.3 94 65.7 112.8 68.3C131.7 71 150.3 75 169.2 76.5C188 78 207 77 225.8 75.3C244.7 73.7 263.3 71.3 282.2 69C301 66.7 320 64.3 338.8 66.2C357.7 68 376.3 74 395.2 77C414 80 433 80 451.8 79.8C470.7 79.7 489.3 79.3 508.2 78.5C527 77.7 546 76.3 564.8 75.3C583.7 74.3 602.3 73.7 621.2 73.7C640 73.7 659 74.3 677.8 73.8C696.7 73.3 715.3 71.7 734.2 72C753 72.3 772 74.7 790.8 76.5C809.7 78.3 828.3 79.7 847.2 77.2C866 74.7 885 68.3 903.8 68.2C922.7 68 941.3 74 950.7 77L960 80L960 101L950.7 101C941.3 101 922.7 101 903.8 101C885 101 866 101 847.2 101C828.3 101 809.7 101 790.8 101C772 101 753 101 734.2 101C715.3 101 696.7 101 677.8 101C659 101 640 101 621.2 101C602.3 101 583.7 101 564.8 101C546 101 527 101 508.2 101C489.3 101 470.7 101 451.8 101C433 101 414 101 395.2 101C376.3 101 357.7 101 338.8 101C320 101 301 101 282.2 101C263.3 101 244.7 101 225.8 101C207 101 188 101 169.2 101C150.3 101 131.7 101 112.8 101C94 101 75 101 56.2 101C37.3 101 18.7 101 9.3 101L0 101Z" fill="#95b1b8"></path><path d="M0 72L9.3 73.7C18.7 75.3 37.3 78.7 56.2 79.3C75 80 94 78 112.8 77.2C131.7 76.3 150.3 76.7 169.2 78.3C188 80 207 83 225.8 83.8C244.7 84.7 263.3 83.3 282.2 81C301 78.7 320 75.3 338.8 73.7C357.7 72 376.3 72 395.2 73.8C414 75.7 433 79.3 451.8 81.8C470.7 84.3 489.3 85.7 508.2 84.7C527 83.7 546 80.3 564.8 79.3C583.7 78.3 602.3 79.7 621.2 79.5C640 79.3 659 77.7 677.8 77.5C696.7 77.3 715.3 78.7 734.2 78C753 77.3 772 74.7 790.8 75.5C809.7 76.3 828.3 80.7 847.2 81.5C866 82.3 885 79.7 903.8 79.2C922.7 78.7 941.3 80.3 950.7 81.2L960 82L960 101L950.7 101C941.3 101 922.7 101 903.8 101C885 101 866 101 847.2 101C828.3 101 809.7 101 790.8 101C772 101 753 101 734.2 101C715.3 101 696.7 101 677.8 101C659 101 640 101 621.2 101C602.3 101 583.7 101 564.8 101C546 101 527 101 508.2 101C489.3 101 470.7 101 451.8 101C433 101 414 101 395.2 101C376.3 101 357.7 101 338.8 101C320 101 301 101 282.2 101C263.3 101 244.7 101 225.8 101C207 101 188 101 169.2 101C150.3 101 131.7 101 112.8 101C94 101 75 101 56.2 101C37.3 101 18.7 101 9.3 101L0 101Z" fill="#b8d8da"></path><path d="M0 87L9.3 86.3C18.7 85.7 37.3 84.3 56.2 84.7C75 85 94 87 112.8 88.5C131.7 90 150.3 91 169.2 91.5C188 92 207 92 225.8 91.3C244.7 90.7 263.3 89.3 282.2 89.2C301 89 320 90 338.8 90.7C357.7 91.3 376.3 91.7 395.2 91.2C414 90.7 433 89.3 451.8 87.8C470.7 86.3 489.3 84.7 508.2 84.2C527 83.7 546 84.3 564.8 85.3C583.7 86.3 602.3 87.7 621.2 88.2C640 88.7 659 88.3 677.8 88.2C696.7 88 715.3 88 734.2 87.2C753 86.3 772 84.7 790.8 85C809.7 85.3 828.3 87.7 847.2 88.7C866 89.7 885 89.3 903.8 87.8C922.7 86.3 941.3 83.7 950.7 82.3L960 81L960 101L950.7 101C941.3 101 922.7 101 903.8 101C885 101 866 101 847.2 101C828.3 101 809.7 101 790.8 101C772 101 753 101 734.2 101C715.3 101 696.7 101 677.8 101C659 101 640 101 621.2 101C602.3 101 583.7 101 564.8 101C546 101 527 101 508.2 101C489.3 101 470.7 101 451.8 101C433 101 414 101 395.2 101C376.3 101 357.7 101 338.8 101C320 101 301 101 282.2 101C263.3 101 244.7 101 225.8 101C207 101 188 101 169.2 101C150.3 101 131.7 101 112.8 101C94 101 75 101 56.2 101C37.3 101 18.7 101 9.3 101L0 101Z" fill="#defffc"></path></svg>