<svg id="visual" viewBox="0 0 960 100" width="960" height="100" xmlns="http://www.w3.org/2000/svg" xmlns:xlink="http://www.w3.org/1999/xlink" version="1.1"><rect x="0" y="0" width="960" height="100" fill="#070617"></rect><path d="M0 52L9.3 54.2C18.7 56.3 37.3 60.7 56.2 65.7C75 70.7 94 76.3 112.8 77.7C131.7 79 150.3 76 169.2 71.3C188 66.7 207 60.3 225.8 59C244.7 57.7 263.3 61.3 282.2 64.5C301 67.7 320 70.3 338.8 71.2C357.7 72 376.3 71 395.2 72C414 73 433 76 451.8 73C470.7 70 489.3 61 508.2 57.2C527 53.3 546 54.7 564.8 60.3C583.7 66 602.3 76 621.2 76.3C640 76.7 659 67.3 677.8 62C696.7 56.7 715.3 55.3 734.2 54.8C753 54.3 772 54.7 790.8 54.3C809.7 54 828.3 53 847.2 54.3C866 55.7 885 59.3 903.8 65.2C922.7 71 941.3 79 950.7 83L960 87L960 0L950.7 0C941.3 0 922.7 0 903.8 0C885 0 866 0 847.2 0C828.3 0 809.7 0 790.8 0C772 0 753 0 734.2 0C715.3 0 696.7 0 677.8 0C659 0 640 0 621.2 0C602.3 0 583.7 0 564.8 0C546 0 527 0 508.2 0C489.3 0 470.7 0 451.8 0C433 0 414 0 395.2 0C376.3 0 357.7 0 338.8 0C320 0 301 0 282.2 0C263.3 0 244.7 0 225.8 0C207 0 188 0 169.2 0C150.3 0 131.7 0 112.8 0C94 0 75 0 56.2 0C37.3 0 18.7 0 9.3 0L0 0Z" fill="#070617"></path><path d="M0 67L9.3 66.5C18.7 66 37.3 65 56.2 66.5C75 68 94 72 112.8 73C131.7 74 150.3 72 169.2 69.2C188 66.3 207 62.7 225.8 62.5C244.7 62.3 263.3 65.7 282.2 67.2C301 68.7 320 68.3 338.8 65.2C357.7 62 376.3 56 395.2 53.5C414 51 433 52 451.8 54.5C470.7 57 489.3 61 508.2 61.8C527 62.7 546 60.3 564.8 57C583.7 53.7 602.3 49.3 621.2 48.3C640 47.3 659 49.7 677.8 50.2C696.7 50.7 715.3 49.3 734.2 48.5C753 47.7 772 47.3 790.8 51.3C809.7 55.3 828.3 63.7 847.2 68C866 72.3 885 72.7 903.8 68.5C922.7 64.3 941.3 55.7 950.7 51.3L960 47L960 0L950.7 0C941.3 0 922.7 0 903.8 0C885 0 866 0 847.2 0C828.3 0 809.7 0 790.8 0C772 0 753 0 734.2 0C715.3 0 696.7 0 677.8 0C659 0 640 0 621.2 0C602.3 0 583.7 0 564.8 0C546 0 527 0 508.2 0C489.3 0 470.7 0 451.8 0C433 0 414 0 395.2 0C376.3 0 357.7 0 338.8 0C320 0 301 0 282.2 0C263.3 0 244.7 0 225.8 0C207 0 188 0 169.2 0C150.3 0 131.7 0 112.8 0C94 0 75 0 56.2 0C37.3 0 18.7 0 9.3 0L0 0Z" fill="#222734"></path><path d="M0 53L9.3 53.7C18.7 54.3 37.3 55.7 56.2 55.5C75 55.3 94 53.7 112.8 51.5C131.7 49.3 150.3 46.7 169.2 45.5C188 44.3 207 44.7 225.8 45.2C244.7 45.7 263.3 46.3 282.2 48.3C301 50.3 320 53.7 338.8 55C357.7 56.3 376.3 55.7 395.2 56.5C414 57.3 433 59.7 451.8 59.5C470.7 59.3 489.3 56.7 508.2 55.8C527 55 546 56 564.8 54.8C583.7 53.7 602.3 50.3 621.2 49C640 47.7 659 48.3 677.8 50.8C696.7 53.3 715.3 57.7 734.2 58.7C753 59.7 772 57.3 790.8 57.3C809.7 57.3 828.3 59.7 847.2 58.2C866 56.7 885 51.3 903.8 52.2C922.7 53 941.3 60 950.7 63.5L960 67L960 0L950.7 0C941.3 0 922.7 0 903.8 0C885 0 866 0 847.2 0C828.3 0 809.7 0 790.8 0C772 0 753 0 734.2 0C715.3 0 696.7 0 677.8 0C659 0 640 0 621.2 0C602.3 0 583.7 0 564.8 0C546 0 527 0 508.2 0C489.3 0 470.7 0 451.8 0C433 0 414 0 395.2 0C376.3 0 357.7 0 338.8 0C320 0 301 0 282.2 0C263.3 0 244.7 0 225.8 0C207 0 188 0 169.2 0C150.3 0 131.7 0 112.8 0C94 0 75 0 56.2 0C37.3 0 18.7 0 9.3 0L0 0Z" fill="#3b4754"></path><path d="M0 49L9.3 48C18.7 47 37.3 45 56.2 45C75 45 94 47 112.8 45.5C131.7 44 150.3 39 169.2 35.8C188 32.7 207 31.3 225.8 31.2C244.7 31 263.3 32 282.2 35.5C301 39 320 45 338.8 46.8C357.7 48.7 376.3 46.3 395.2 45.5C414 44.7 433 45.3 451.8 45.8C470.7 46.3 489.3 46.7 508.2 47.2C527 47.7 546 48.3 564.8 47.8C583.7 47.3 602.3 45.7 621.2 45.2C640 44.7 659 45.3 677.8 46.8C696.7 48.3 715.3 50.7 734.2 48.2C753 45.7 772 38.3 790.8 35.2C809.7 32 828.3 33 847.2 33.7C866 34.3 885 34.7 903.8 36.2C922.7 37.7 941.3 40.3 950.7 41.7L960 43L960 0L950.7 0C941.3 0 922.7 0 903.8 0C885 0 866 0 847.2 0C828.3 0 809.7 0 790.8 0C772 0 753 0 734.2 0C715.3 0 696.7 0 677.8 0C659 0 640 0 621.2 0C602.3 0 583.7 0 564.8 0C546 0 527 0 508.2 0C489.3 0 470.7 0 451.8 0C433 0 414 0 395.2 0C376.3 0 357.7 0 338.8 0C320 0 301 0 282.2 0C263.3 0 244.7 0 225.8 0C207 0 188 0 169.2 0C150.3 0 131.7 0 112.8 0C94 0 75 0 56.2 0C37.3 0 18.7 0 9.3 0L0 0Z" fill="#566875"></path><path d="M0 40L9.3 39.7C18.7 39.3 37.3 38.7 56.2 36.5C75 34.3 94 30.7 112.8 31.5C131.7 32.3 150.3 37.7 169.2 37.3C188 37 207 31 225.8 31.3C244.7 31.7 263.3 38.3 282.2 41C301 43.7 320 42.3 338.8 41.3C357.7 40.3 376.3 39.7 395.2 38.8C414 38 433 37 451.8 35.3C470.7 33.7 489.3 31.3 508.2 32.7C527 34 546 39 564.8 40.3C583.7 41.7 602.3 39.3 621.2 37.8C640 36.3 659 35.7 677.8 34.7C696.7 33.7 715.3 32.3 734.2 31C753 29.7 772 28.3 790.8 29.2C809.7 30 828.3 33 847.2 34.5C866 36 885 36 903.8 35.8C922.7 35.7 941.3 35.3 950.7 35.2L960 35L960 0L950.7 0C941.3 0 922.7 0 903.8 0C885 0 866 0 847.2 0C828.3 0 809.7 0 790.8 0C772 0 753 0 734.2 0C715.3 0 696.7 0 677.8 0C659 0 640 0 621.2 0C602.3 0 583.7 0 564.8 0C546 0 527 0 508.2 0C489.3 0 470.7 0 451.8 0C433 0 414 0 395.2 0C376.3 0 357.7 0 338.8 0C320 0 301 0 282.2 0C263.3 0 244.7 0 225.8 0C207 0 188 0 169.2 0C150.3 0 131.7 0 112.8 0C94 0 75 0 56.2 0C37.3 0 18.7 0 9.3 0L0 0Z" fill="#748c97"></path><path d="M0 17L9.3 17C18.7 17 37.3 17 56.2 19C75 21 94 25 112.8 26.8C131.7 28.7 150.3 28.3 169.2 28.2C188 28 207 28 225.8 27.8C244.7 27.7 263.3 27.3 282.2 26.3C301 25.3 320 23.7 338.8 22.3C357.7 21 376.3 20 395.2 19.7C414 19.3 433 19.7 451.8 21C470.7 22.3 489.3 24.7 508.2 25.7C527 26.7 546 26.3 564.8 26.8C583.7 27.3 602.3 28.7 621.2 28.5C640 28.3 659 26.7 677.8 27C696.7 27.3 715.3 29.7 734.2 29.7C753 29.7 772 27.3 790.8 26.5C809.7 25.7 828.3 26.3 847.2 26.7C866 27 885 27 903.8 25.7C922.7 24.3 941.3 21.7 950.7 20.3L960 19L960 0L950.7 0C941.3 0 922.7 0 903.8 0C885 0 866 0 847.2 0C828.3 0 809.7 0 790.8 0C772 0 753 0 734.2 0C715.3 0 696.7 0 677.8 0C659 0 640 0 621.2 0C602.3 0 583.7 0 564.8 0C546 0 527 0 508.2 0C489.3 0 470.7 0 451.8 0C433 0 414 0 395.2 0C376.3 0 357.7 0 338.8 0C320 0 301 0 282.2 0C263.3 0 244.7 0 225.8 0C207 0 188 0 169.2 0C150.3 0 131.7 0 112.8 0C94 0 75 0 56.2 0C37.3 0 18.7 0 9.3 0L0 0Z" fill="#95b1b8"></path><path d="M0 17L9.3 18.2C18.7 19.3 37.3 21.7 56.2 22C75 22.3 94 20.7 112.8 19.8C131.7 19 150.3 19 169.2 20C188 21 207 23 225.8 23.8C244.7 24.7 263.3 24.3 282.2 23.5C301 22.7 320 21.3 338.8 21.2C357.7 21 376.3 22 395.2 22.2C414 22.3 433 21.7 451.8 22.2C470.7 22.7 489.3 24.3 508.2 22.8C527 21.3 546 16.7 564.8 16.8C583.7 17 602.3 22 621.2 22.5C640 23 659 19 677.8 17.8C696.7 16.7 715.3 18.3 734.2 18.7C753 19 772 18 790.8 19C809.7 20 828.3 23 847.2 23.8C866 24.7 885 23.3 903.8 22.3C922.7 21.3 941.3 20.7 950.7 20.3L960 20L960 0L950.7 0C941.3 0 922.7 0 903.8 0C885 0 866 0 847.2 0C828.3 0 809.7 0 790.8 0C772 0 753 0 734.2 0C715.3 0 696.7 0 677.8 0C659 0 640 0 621.2 0C602.3 0 583.7 0 564.8 0C546 0 527 0 508.2 0C489.3 0 470.7 0 451.8 0C433 0 414 0 395.2 0C376.3 0 357.7 0 338.8 0C320 0 301 0 282.2 0C263.3 0 244.7 0 225.8 0C207 0 188 0 169.2 0C150.3 0 131.7 0 112.8 0C94 0 75 0 56.2 0C37.3 0 18.7 0 9.3 0L0 0Z" fill="#b8d8da"></path><path d="M0 11L9.3 10.5C18.7 10 37.3 9 56.2 8.7C75 8.3 94 8.7 112.8 10C131.7 11.3 150.3 13.7 169.2 13.7C188 13.7 207 11.3 225.8 9.7C244.7 8 263.3 7 282.2 7.7C301 8.3 320 10.7 338.8 10.8C357.7 11 376.3 9 395.2 7.5C414 6 433 5 451.8 4.5C470.7 4 489.3 4 508.2 4C527 4 546 4 564.8 5.8C583.7 7.7 602.3 11.3 621.2 11.5C640 11.7 659 8.3 677.8 7C696.7 5.7 715.3 6.3 734.2 6.8C753 7.3 772 7.7 790.8 7.7C809.7 7.7 828.3 7.3 847.2 6.7C866 6 885 5 903.8 6.2C922.7 7.3 941.3 10.7 950.7 12.3L960 14L960 0L950.7 0C941.3 0 922.7 0 903.8 0C885 0 866 0 847.2 0C828.3 0 809.7 0 790.8 0C772 0 753 0 734.2 0C715.3 0 696.7 0 677.8 0C659 0 640 0 621.2 0C602.3 0 583.7 0 564.8 0C546 0 527 0 508.2 0C489.3 0 470.7 0 451.8 0C433 0 414 0 395.2 0C376.3 0 357.7 0 338.8 0C320 0 301 0 282.2 0C263.3 0 244.7 0 225.8 0C207 0 188 0 169.2 0C150.3 0 131.7 0 112.8 0C94 0 75 0 56.2 0C37.3 0 18.7 0 9.3 0L0 0Z" fill="#defffc"></path></svg>