<svg id="visual" viewBox="0 0 960 100" width="960" height="100" xmlns="http://www.w3.org/2000/svg" xmlns:xlink="http://www.w3.org/1999/xlink" version="1.1"><path d="M0 13L13.3 13.7C26.7 14.3 53.3 15.7 80 22C106.7 28.3 133.3 39.7 160 40C186.7 40.3 213.3 29.7 240 26.8C266.7 24 293.3 29 320 29.3C346.7 29.7 373.3 25.3 400 24C426.7 22.7 453.3 24.3 480 24.2C506.7 24 533.3 22 560 19.5C586.7 17 613.3 14 640 19.7C666.7 25.3 693.3 39.7 720 44.7C746.7 49.7 773.3 45.3 800 40.3C826.7 35.3 853.3 29.7 880 29.3C906.7 29 933.3 34 946.7 36.5L960 39L960 101L946.7 101C933.3 101 906.7 101 880 101C853.3 101 826.7 101 800 101C773.3 101 746.7 101 720 101C693.3 101 666.7 101 640 101C613.3 101 586.7 101 560 101C533.3 101 506.7 101 480 101C453.3 101 426.7 101 400 101C373.3 101 346.7 101 320 101C293.3 101 266.7 101 240 101C213.3 101 186.7 101 160 101C133.3 101 106.7 101 80 101C53.3 101 26.7 101 13.3 101L0 101Z" fill="#070617"></path><path d="M0 40L13.3 40.8C26.7 41.7 53.3 43.3 80 46C106.7 48.7 133.3 52.3 160 51.2C186.7 50 213.3 44 240 40.3C266.7 36.7 293.3 35.3 320 38.8C346.7 42.3 373.3 50.7 400 54.7C426.7 58.7 453.3 58.3 480 58.2C506.7 58 533.3 58 560 54.7C586.7 51.3 613.3 44.7 640 44.3C666.7 44 693.3 50 720 52.7C746.7 55.3 773.3 54.7 800 53.2C826.7 51.7 853.3 49.3 880 47.3C906.7 45.3 933.3 43.7 946.7 42.8L960 42L960 101L946.7 101C933.3 101 906.7 101 880 101C853.3 101 826.7 101 800 101C773.3 101 746.7 101 720 101C693.3 101 666.7 101 640 101C613.3 101 586.7 101 560 101C533.3 101 506.7 101 480 101C453.3 101 426.7 101 400 101C373.3 101 346.7 101 320 101C293.3 101 266.7 101 240 101C213.3 101 186.7 101 160 101C133.3 101 106.7 101 80 101C53.3 101 26.7 101 13.3 101L0 101Z" fill="#30183b"></path><path d="M0 59L13.3 57C26.7 55 53.3 51 80 48.7C106.7 46.3 133.3 45.7 160 45.3C186.7 45 213.3 45 240 48.8C266.7 52.7 293.3 60.3 320 62.8C346.7 65.3 373.3 62.7 400 62.7C426.7 62.7 453.3 65.3 480 63.2C506.7 61 533.3 54 560 49.5C586.7 45 613.3 43 640 44.7C666.7 46.3 693.3 51.7 720 55.3C746.7 59 773.3 61 800 58.8C826.7 56.7 853.3 50.3 880 52.2C906.7 54 933.3 64 946.7 69L960 74L960 101L946.7 101C933.3 101 906.7 101 880 101C853.3 101 826.7 101 800 101C773.3 101 746.7 101 720 101C693.3 101 666.7 101 640 101C613.3 101 586.7 101 560 101C533.3 101 506.7 101 480 101C453.3 101 426.7 101 400 101C373.3 101 346.7 101 320 101C293.3 101 266.7 101 240 101C213.3 101 186.7 101 160 101C133.3 101 106.7 101 80 101C53.3 101 26.7 101 13.3 101L0 101Z" fill="#6b164e"></path><path d="M0 63L13.3 65.7C26.7 68.3 53.3 73.7 80 74.7C106.7 75.7 133.3 72.3 160 73.2C186.7 74 213.3 79 240 79.7C266.7 80.3 293.3 76.7 320 72.8C346.7 69 373.3 65 400 65.7C426.7 66.3 453.3 71.7 480 75C506.7 78.3 533.3 79.7 560 79.8C586.7 80 613.3 79 640 78C666.7 77 693.3 76 720 76.2C746.7 76.3 773.3 77.7 800 76.7C826.7 75.7 853.3 72.3 880 72.5C906.7 72.7 933.3 76.3 946.7 78.2L960 80L960 101L946.7 101C933.3 101 906.7 101 880 101C853.3 101 826.7 101 800 101C773.3 101 746.7 101 720 101C693.3 101 666.7 101 640 101C613.3 101 586.7 101 560 101C533.3 101 506.7 101 480 101C453.3 101 426.7 101 400 101C373.3 101 346.7 101 320 101C293.3 101 266.7 101 240 101C213.3 101 186.7 101 160 101C133.3 101 106.7 101 80 101C53.3 101 26.7 101 13.3 101L0 101Z" fill="#a80448"></path><path d="M0 80L13.3 81C26.7 82 53.3 84 80 85.3C106.7 86.7 133.3 87.3 160 88.2C186.7 89 213.3 90 240 87.5C266.7 85 293.3 79 320 79.3C346.7 79.7 373.3 86.3 400 89.2C426.7 92 453.3 91 480 90C506.7 89 533.3 88 560 86.5C586.7 85 613.3 83 640 81.2C666.7 79.3 693.3 77.7 720 76C746.7 74.3 773.3 72.7 800 71.8C826.7 71 853.3 71 880 72.5C906.7 74 933.3 77 946.7 78.5L960 80L960 101L946.7 101C933.3 101 906.7 101 880 101C853.3 101 826.7 101 800 101C773.3 101 746.7 101 720 101C693.3 101 666.7 101 640 101C613.3 101 586.7 101 560 101C533.3 101 506.7 101 480 101C453.3 101 426.7 101 400 101C373.3 101 346.7 101 320 101C293.3 101 266.7 101 240 101C213.3 101 186.7 101 160 101C133.3 101 106.7 101 80 101C53.3 101 26.7 101 13.3 101L0 101Z" fill="#d62828"></path></svg>