<svg id="visual" viewBox="0 0 960 100" width="960" height="100" xmlns="http://www.w3.org/2000/svg" xmlns:xlink="http://www.w3.org/1999/xlink" version="1.1"><rect x="0" y="0" width="960" height="100" fill="#070617"></rect><path d="M0 51L9.3 56.2C18.7 61.3 37.3 71.7 56.2 74.8C75 78 94 74 112.8 74.5C131.7 75 150.3 80 169.2 80.5C188 81 207 77 225.8 75.7C244.7 74.3 263.3 75.7 282.2 72.2C301 68.7 320 60.3 338.8 60.8C357.7 61.3 376.3 70.7 395.2 72.7C414 74.7 433 69.3 451.8 69.2C470.7 69 489.3 74 508.2 76.8C527 79.7 546 80.3 564.8 80.2C583.7 80 602.3 79 621.2 79.2C640 79.3 659 80.7 677.8 79.8C696.7 79 715.3 76 734.2 75.5C753 75 772 77 790.8 74C809.7 71 828.3 63 847.2 60.7C866 58.3 885 61.7 903.8 64.5C922.7 67.3 941.3 69.7 950.7 70.8L960 72L960 0L950.7 0C941.3 0 922.7 0 903.8 0C885 0 866 0 847.2 0C828.3 0 809.7 0 790.8 0C772 0 753 0 734.2 0C715.3 0 696.7 0 677.8 0C659 0 640 0 621.2 0C602.3 0 583.7 0 564.8 0C546 0 527 0 508.2 0C489.3 0 470.7 0 451.8 0C433 0 414 0 395.2 0C376.3 0 357.7 0 338.8 0C320 0 301 0 282.2 0C263.3 0 244.7 0 225.8 0C207 0 188 0 169.2 0C150.3 0 131.7 0 112.8 0C94 0 75 0 56.2 0C37.3 0 18.7 0 9.3 0L0 0Z" fill="#070617"></path><path d="M0 44L9.3 44.5C18.7 45 37.3 46 56.2 49.8C75 53.7 94 60.3 112.8 62C131.7 63.7 150.3 60.3 169.2 57.3C188 54.3 207 51.7 225.8 54.8C244.7 58 263.3 67 282.2 67.5C301 68 320 60 338.8 56.3C357.7 52.7 376.3 53.3 395.2 56C414 58.7 433 63.3 451.8 66.5C470.7 69.7 489.3 71.3 508.2 69.5C527 67.7 546 62.3 564.8 60.3C583.7 58.3 602.3 59.7 621.2 58.3C640 57 659 53 677.8 53.7C696.7 54.3 715.3 59.7 734.2 60C753 60.3 772 55.7 790.8 53.7C809.7 51.7 828.3 52.3 847.2 51.2C866 50 885 47 903.8 45.7C922.7 44.3 941.3 44.7 950.7 44.8L960 45L960 0L950.7 0C941.3 0 922.7 0 903.8 0C885 0 866 0 847.2 0C828.3 0 809.7 0 790.8 0C772 0 753 0 734.2 0C715.3 0 696.7 0 677.8 0C659 0 640 0 621.2 0C602.3 0 583.7 0 564.8 0C546 0 527 0 508.2 0C489.3 0 470.7 0 451.8 0C433 0 414 0 395.2 0C376.3 0 357.7 0 338.8 0C320 0 301 0 282.2 0C263.3 0 244.7 0 225.8 0C207 0 188 0 169.2 0C150.3 0 131.7 0 112.8 0C94 0 75 0 56.2 0C37.3 0 18.7 0 9.3 0L0 0Z" fill="#181926"></path><path d="M0 45L9.3 47C18.7 49 37.3 53 56.2 53.3C75 53.7 94 50.3 112.8 48.2C131.7 46 150.3 45 169.2 47C188 49 207 54 225.8 55.8C244.7 57.7 263.3 56.3 282.2 54C301 51.7 320 48.3 338.8 50C357.7 51.7 376.3 58.3 395.2 61.3C414 64.3 433 63.7 451.8 59.3C470.7 55 489.3 47 508.2 44.7C527 42.3 546 45.7 564.8 47.8C583.7 50 602.3 51 621.2 50C640 49 659 46 677.8 45.5C696.7 45 715.3 47 734.2 48.3C753 49.7 772 50.3 790.8 53C809.7 55.7 828.3 60.3 847.2 62.5C866 64.7 885 64.3 903.8 61.2C922.7 58 941.3 52 950.7 49L960 46L960 0L950.7 0C941.3 0 922.7 0 903.8 0C885 0 866 0 847.2 0C828.3 0 809.7 0 790.8 0C772 0 753 0 734.2 0C715.3 0 696.7 0 677.8 0C659 0 640 0 621.2 0C602.3 0 583.7 0 564.8 0C546 0 527 0 508.2 0C489.3 0 470.7 0 451.8 0C433 0 414 0 395.2 0C376.3 0 357.7 0 338.8 0C320 0 301 0 282.2 0C263.3 0 244.7 0 225.8 0C207 0 188 0 169.2 0C150.3 0 131.7 0 112.8 0C94 0 75 0 56.2 0C37.3 0 18.7 0 9.3 0L0 0Z" fill="#262836"></path><path d="M0 45L9.3 45C18.7 45 37.3 45 56.2 45.7C75 46.3 94 47.7 112.8 47.8C131.7 48 150.3 47 169.2 45C188 43 207 40 225.8 41C244.7 42 263.3 47 282.2 49.3C301 51.7 320 51.3 338.8 47.7C357.7 44 376.3 37 395.2 34.5C414 32 433 34 451.8 37C470.7 40 489.3 44 508.2 44.7C527 45.3 546 42.7 564.8 39.8C583.7 37 602.3 34 621.2 36C640 38 659 45 677.8 45.5C696.7 46 715.3 40 734.2 40.3C753 40.7 772 47.3 790.8 48.7C809.7 50 828.3 46 847.2 43.8C866 41.7 885 41.3 903.8 42.3C922.7 43.3 941.3 45.7 950.7 46.8L960 48L960 0L950.7 0C941.3 0 922.7 0 903.8 0C885 0 866 0 847.2 0C828.3 0 809.7 0 790.8 0C772 0 753 0 734.2 0C715.3 0 696.7 0 677.8 0C659 0 640 0 621.2 0C602.3 0 583.7 0 564.8 0C546 0 527 0 508.2 0C489.3 0 470.7 0 451.8 0C433 0 414 0 395.2 0C376.3 0 357.7 0 338.8 0C320 0 301 0 282.2 0C263.3 0 244.7 0 225.8 0C207 0 188 0 169.2 0C150.3 0 131.7 0 112.8 0C94 0 75 0 56.2 0C37.3 0 18.7 0 9.3 0L0 0Z" fill="#353747"></path><path d="M0 35L9.3 33.2C18.7 31.3 37.3 27.7 56.2 27C75 26.3 94 28.7 112.8 29.8C131.7 31 150.3 31 169.2 33.7C188 36.3 207 41.7 225.8 44C244.7 46.3 263.3 45.7 282.2 45.5C301 45.3 320 45.7 338.8 42.8C357.7 40 376.3 34 395.2 31.5C414 29 433 30 451.8 29.8C470.7 29.7 489.3 28.3 508.2 30.8C527 33.3 546 39.7 564.8 43C583.7 46.3 602.3 46.7 621.2 45C640 43.3 659 39.7 677.8 38.2C696.7 36.7 715.3 37.3 734.2 35.5C753 33.7 772 29.3 790.8 28.3C809.7 27.3 828.3 29.7 847.2 31.2C866 32.7 885 33.3 903.8 34.5C922.7 35.7 941.3 37.3 950.7 38.2L960 39L960 0L950.7 0C941.3 0 922.7 0 903.8 0C885 0 866 0 847.2 0C828.3 0 809.7 0 790.8 0C772 0 753 0 734.2 0C715.3 0 696.7 0 677.8 0C659 0 640 0 621.2 0C602.3 0 583.7 0 564.8 0C546 0 527 0 508.2 0C489.3 0 470.7 0 451.8 0C433 0 414 0 395.2 0C376.3 0 357.7 0 338.8 0C320 0 301 0 282.2 0C263.3 0 244.7 0 225.8 0C207 0 188 0 169.2 0C150.3 0 131.7 0 112.8 0C94 0 75 0 56.2 0C37.3 0 18.7 0 9.3 0L0 0Z" fill="#454759"></path><path d="M0 23L9.3 22.5C18.7 22 37.3 21 56.2 23.2C75 25.3 94 30.7 112.8 31.7C131.7 32.7 150.3 29.3 169.2 27.2C188 25 207 24 225.8 24.8C244.7 25.7 263.3 28.3 282.2 27.7C301 27 320 23 338.8 22C357.7 21 376.3 23 395.2 25.3C414 27.7 433 30.3 451.8 29.3C470.7 28.3 489.3 23.7 508.2 21.3C527 19 546 19 564.8 21.3C583.7 23.7 602.3 28.3 621.2 29.7C640 31 659 29 677.8 27.8C696.7 26.7 715.3 26.3 734.2 26C753 25.7 772 25.3 790.8 24.7C809.7 24 828.3 23 847.2 23.2C866 23.3 885 24.7 903.8 23.8C922.7 23 941.3 20 950.7 18.5L960 17L960 0L950.7 0C941.3 0 922.7 0 903.8 0C885 0 866 0 847.2 0C828.3 0 809.7 0 790.8 0C772 0 753 0 734.2 0C715.3 0 696.7 0 677.8 0C659 0 640 0 621.2 0C602.3 0 583.7 0 564.8 0C546 0 527 0 508.2 0C489.3 0 470.7 0 451.8 0C433 0 414 0 395.2 0C376.3 0 357.7 0 338.8 0C320 0 301 0 282.2 0C263.3 0 244.7 0 225.8 0C207 0 188 0 169.2 0C150.3 0 131.7 0 112.8 0C94 0 75 0 56.2 0C37.3 0 18.7 0 9.3 0L0 0Z" fill="#55586b"></path><path d="M0 16L9.3 17.3C18.7 18.7 37.3 21.3 56.2 22.8C75 24.3 94 24.7 112.8 23.7C131.7 22.7 150.3 20.3 169.2 19.5C188 18.7 207 19.3 225.8 20C244.7 20.7 263.3 21.3 282.2 22.2C301 23 320 24 338.8 23C357.7 22 376.3 19 395.2 18.3C414 17.7 433 19.3 451.8 18.8C470.7 18.3 489.3 15.7 508.2 14.3C527 13 546 13 564.8 14.7C583.7 16.3 602.3 19.7 621.2 20.2C640 20.7 659 18.3 677.8 16.3C696.7 14.3 715.3 12.7 734.2 13.5C753 14.3 772 17.7 790.8 18.8C809.7 20 828.3 19 847.2 17.5C866 16 885 14 903.8 13.3C922.7 12.7 941.3 13.3 950.7 13.7L960 14L960 0L950.7 0C941.3 0 922.7 0 903.8 0C885 0 866 0 847.2 0C828.3 0 809.7 0 790.8 0C772 0 753 0 734.2 0C715.3 0 696.7 0 677.8 0C659 0 640 0 621.2 0C602.3 0 583.7 0 564.8 0C546 0 527 0 508.2 0C489.3 0 470.7 0 451.8 0C433 0 414 0 395.2 0C376.3 0 357.7 0 338.8 0C320 0 301 0 282.2 0C263.3 0 244.7 0 225.8 0C207 0 188 0 169.2 0C150.3 0 131.7 0 112.8 0C94 0 75 0 56.2 0C37.3 0 18.7 0 9.3 0L0 0Z" fill="#65697e"></path><path d="M0 5L9.3 6.8C18.7 8.7 37.3 12.3 56.2 12.5C75 12.7 94 9.3 112.8 8.5C131.7 7.7 150.3 9.3 169.2 9.8C188 10.3 207 9.7 225.8 8.5C244.7 7.3 263.3 5.7 282.2 6C301 6.3 320 8.7 338.8 9.5C357.7 10.3 376.3 9.7 395.2 10.5C414 11.3 433 13.7 451.8 14.8C470.7 16 489.3 16 508.2 14.8C527 13.7 546 11.3 564.8 9.7C583.7 8 602.3 7 621.2 6.2C640 5.3 659 4.7 677.8 4.5C696.7 4.3 715.3 4.7 734.2 5.5C753 6.3 772 7.7 790.8 9.3C809.7 11 828.3 13 847.2 14C866 15 885 15 903.8 13.5C922.7 12 941.3 9 950.7 7.5L960 6L960 0L950.7 0C941.3 0 922.7 0 903.8 0C885 0 866 0 847.2 0C828.3 0 809.7 0 790.8 0C772 0 753 0 734.2 0C715.3 0 696.7 0 677.8 0C659 0 640 0 621.2 0C602.3 0 583.7 0 564.8 0C546 0 527 0 508.2 0C489.3 0 470.7 0 451.8 0C433 0 414 0 395.2 0C376.3 0 357.7 0 338.8 0C320 0 301 0 282.2 0C263.3 0 244.7 0 225.8 0C207 0 188 0 169.2 0C150.3 0 131.7 0 112.8 0C94 0 75 0 56.2 0C37.3 0 18.7 0 9.3 0L0 0Z" fill="#767b91"></path></svg>