<svg id="visual" viewBox="0 0 960 100" width="960" height="100" xmlns="http://www.w3.org/2000/svg" xmlns:xlink="http://www.w3.org/1999/xlink" version="1.1"><rect x="0" y="0" width="960" height="100" fill="#070617"></rect><path d="M0 44L9.3 39.2C18.7 34.3 37.3 24.7 56.2 20.8C75 17 94 19 112.8 21C131.7 23 150.3 25 169.2 27.2C188 29.3 207 31.7 225.8 29.3C244.7 27 263.3 20 282.2 18.8C301 17.7 320 22.3 338.8 25.2C357.7 28 376.3 29 395.2 31C414 33 433 36 451.8 34.3C470.7 32.7 489.3 26.3 508.2 26.5C527 26.7 546 33.3 564.8 36C583.7 38.7 602.3 37.3 621.2 34.7C640 32 659 28 677.8 28.2C696.7 28.3 715.3 32.7 734.2 32C753 31.3 772 25.7 790.8 23.3C809.7 21 828.3 22 847.2 22.3C866 22.7 885 22.3 903.8 25.7C922.7 29 941.3 36 950.7 39.5L960 43L960 101L950.7 101C941.3 101 922.7 101 903.8 101C885 101 866 101 847.2 101C828.3 101 809.7 101 790.8 101C772 101 753 101 734.2 101C715.3 101 696.7 101 677.8 101C659 101 640 101 621.2 101C602.3 101 583.7 101 564.8 101C546 101 527 101 508.2 101C489.3 101 470.7 101 451.8 101C433 101 414 101 395.2 101C376.3 101 357.7 101 338.8 101C320 101 301 101 282.2 101C263.3 101 244.7 101 225.8 101C207 101 188 101 169.2 101C150.3 101 131.7 101 112.8 101C94 101 75 101 56.2 101C37.3 101 18.7 101 9.3 101L0 101Z" fill="#070617"></path><path d="M0 25L9.3 28.8C18.7 32.7 37.3 40.3 56.2 42.3C75 44.3 94 40.7 112.8 37.7C131.7 34.7 150.3 32.3 169.2 30.3C188 28.3 207 26.7 225.8 26.2C244.7 25.7 263.3 26.3 282.2 26.2C301 26 320 25 338.8 28.2C357.7 31.3 376.3 38.7 395.2 42.7C414 46.7 433 47.3 451.8 45.2C470.7 43 489.3 38 508.2 34.8C527 31.7 546 30.3 564.8 32C583.7 33.7 602.3 38.3 621.2 40.7C640 43 659 43 677.8 41.2C696.7 39.3 715.3 35.7 734.2 36C753 36.3 772 40.7 790.8 41.7C809.7 42.7 828.3 40.3 847.2 36.5C866 32.7 885 27.3 903.8 28.8C922.7 30.3 941.3 38.7 950.7 42.8L960 47L960 101L950.7 101C941.3 101 922.7 101 903.8 101C885 101 866 101 847.2 101C828.3 101 809.7 101 790.8 101C772 101 753 101 734.2 101C715.3 101 696.7 101 677.8 101C659 101 640 101 621.2 101C602.3 101 583.7 101 564.8 101C546 101 527 101 508.2 101C489.3 101 470.7 101 451.8 101C433 101 414 101 395.2 101C376.3 101 357.7 101 338.8 101C320 101 301 101 282.2 101C263.3 101 244.7 101 225.8 101C207 101 188 101 169.2 101C150.3 101 131.7 101 112.8 101C94 101 75 101 56.2 101C37.3 101 18.7 101 9.3 101L0 101Z" fill="#28202f"></path><path d="M0 54L9.3 53.3C18.7 52.7 37.3 51.3 56.2 52.5C75 53.7 94 57.3 112.8 58C131.7 58.7 150.3 56.3 169.2 55.8C188 55.3 207 56.7 225.8 53.5C244.7 50.3 263.3 42.7 282.2 38.5C301 34.3 320 33.7 338.8 33.5C357.7 33.3 376.3 33.7 395.2 37.8C414 42 433 50 451.8 50.5C470.7 51 489.3 44 508.2 40C527 36 546 35 564.8 34.5C583.7 34 602.3 34 621.2 33.7C640 33.3 659 32.7 677.8 36.3C696.7 40 715.3 48 734.2 52.2C753 56.3 772 56.7 790.8 55C809.7 53.3 828.3 49.7 847.2 49.5C866 49.3 885 52.7 903.8 53.7C922.7 54.7 941.3 53.3 950.7 52.7L960 52L960 101L950.7 101C941.3 101 922.7 101 903.8 101C885 101 866 101 847.2 101C828.3 101 809.7 101 790.8 101C772 101 753 101 734.2 101C715.3 101 696.7 101 677.8 101C659 101 640 101 621.2 101C602.3 101 583.7 101 564.8 101C546 101 527 101 508.2 101C489.3 101 470.7 101 451.8 101C433 101 414 101 395.2 101C376.3 101 357.7 101 338.8 101C320 101 301 101 282.2 101C263.3 101 244.7 101 225.8 101C207 101 188 101 169.2 101C150.3 101 131.7 101 112.8 101C94 101 75 101 56.2 101C37.3 101 18.7 101 9.3 101L0 101Z" fill="#4a3547"></path><path d="M0 42L9.3 42.3C18.7 42.7 37.3 43.3 56.2 47C75 50.7 94 57.3 112.8 57.8C131.7 58.3 150.3 52.7 169.2 49.3C188 46 207 45 225.8 46.2C244.7 47.3 263.3 50.7 282.2 52.2C301 53.7 320 53.3 338.8 52.3C357.7 51.3 376.3 49.7 395.2 47.7C414 45.7 433 43.3 451.8 43.7C470.7 44 489.3 47 508.2 50C527 53 546 56 564.8 57.5C583.7 59 602.3 59 621.2 58.8C640 58.7 659 58.3 677.8 57C696.7 55.7 715.3 53.3 734.2 52.3C753 51.3 772 51.7 790.8 50.5C809.7 49.3 828.3 46.7 847.2 49.2C866 51.7 885 59.3 903.8 61.2C922.7 63 941.3 59 950.7 57L960 55L960 101L950.7 101C941.3 101 922.7 101 903.8 101C885 101 866 101 847.2 101C828.3 101 809.7 101 790.8 101C772 101 753 101 734.2 101C715.3 101 696.7 101 677.8 101C659 101 640 101 621.2 101C602.3 101 583.7 101 564.8 101C546 101 527 101 508.2 101C489.3 101 470.7 101 451.8 101C433 101 414 101 395.2 101C376.3 101 357.7 101 338.8 101C320 101 301 101 282.2 101C263.3 101 244.7 101 225.8 101C207 101 188 101 169.2 101C150.3 101 131.7 101 112.8 101C94 101 75 101 56.2 101C37.3 101 18.7 101 9.3 101L0 101Z" fill="#6f4d5c"></path><path d="M0 56L9.3 55.8C18.7 55.7 37.3 55.3 56.2 55.8C75 56.3 94 57.7 112.8 60.8C131.7 64 150.3 69 169.2 69C188 69 207 64 225.8 61.8C244.7 59.7 263.3 60.3 282.2 59.7C301 59 320 57 338.8 56.2C357.7 55.3 376.3 55.7 395.2 58.2C414 60.7 433 65.3 451.8 65.5C470.7 65.7 489.3 61.3 508.2 60.8C527 60.3 546 63.7 564.8 65C583.7 66.3 602.3 65.7 621.2 64.7C640 63.7 659 62.3 677.8 62.8C696.7 63.3 715.3 65.7 734.2 66C753 66.3 772 64.7 790.8 62.7C809.7 60.7 828.3 58.3 847.2 59.2C866 60 885 64 903.8 66C922.7 68 941.3 68 950.7 68L960 68L960 101L950.7 101C941.3 101 922.7 101 903.8 101C885 101 866 101 847.2 101C828.3 101 809.7 101 790.8 101C772 101 753 101 734.2 101C715.3 101 696.7 101 677.8 101C659 101 640 101 621.2 101C602.3 101 583.7 101 564.8 101C546 101 527 101 508.2 101C489.3 101 470.7 101 451.8 101C433 101 414 101 395.2 101C376.3 101 357.7 101 338.8 101C320 101 301 101 282.2 101C263.3 101 244.7 101 225.8 101C207 101 188 101 169.2 101C150.3 101 131.7 101 112.8 101C94 101 75 101 56.2 101C37.3 101 18.7 101 9.3 101L0 101Z" fill="#95666f"></path><path d="M0 81L9.3 78.5C18.7 76 37.3 71 56.2 70.3C75 69.7 94 73.3 112.8 75.3C131.7 77.3 150.3 77.7 169.2 78.2C188 78.7 207 79.3 225.8 78.2C244.7 77 263.3 74 282.2 71.5C301 69 320 67 338.8 66.7C357.7 66.3 376.3 67.7 395.2 69.8C414 72 433 75 451.8 75.5C470.7 76 489.3 74 508.2 74.2C527 74.3 546 76.7 564.8 76C583.7 75.3 602.3 71.7 621.2 71C640 70.3 659 72.7 677.8 74.5C696.7 76.3 715.3 77.7 734.2 76.3C753 75 772 71 790.8 70.7C809.7 70.3 828.3 73.7 847.2 74.8C866 76 885 75 903.8 74C922.7 73 941.3 72 950.7 71.5L960 71L960 101L950.7 101C941.3 101 922.7 101 903.8 101C885 101 866 101 847.2 101C828.3 101 809.7 101 790.8 101C772 101 753 101 734.2 101C715.3 101 696.7 101 677.8 101C659 101 640 101 621.2 101C602.3 101 583.7 101 564.8 101C546 101 527 101 508.2 101C489.3 101 470.7 101 451.8 101C433 101 414 101 395.2 101C376.3 101 357.7 101 338.8 101C320 101 301 101 282.2 101C263.3 101 244.7 101 225.8 101C207 101 188 101 169.2 101C150.3 101 131.7 101 112.8 101C94 101 75 101 56.2 101C37.3 101 18.7 101 9.3 101L0 101Z" fill="#ba827f"></path><path d="M0 75L9.3 75.2C18.7 75.3 37.3 75.7 56.2 76C75 76.3 94 76.7 112.8 77.2C131.7 77.7 150.3 78.3 169.2 78.7C188 79 207 79 225.8 79C244.7 79 263.3 79 282.2 77.8C301 76.7 320 74.3 338.8 74.7C357.7 75 376.3 78 395.2 79.8C414 81.7 433 82.3 451.8 81.2C470.7 80 489.3 77 508.2 77.5C527 78 546 82 564.8 82.2C583.7 82.3 602.3 78.7 621.2 77.3C640 76 659 77 677.8 77C696.7 77 715.3 76 734.2 75.5C753 75 772 75 790.8 75C809.7 75 828.3 75 847.2 75.8C866 76.7 885 78.3 903.8 77.8C922.7 77.3 941.3 74.7 950.7 73.3L960 72L960 101L950.7 101C941.3 101 922.7 101 903.8 101C885 101 866 101 847.2 101C828.3 101 809.7 101 790.8 101C772 101 753 101 734.2 101C715.3 101 696.7 101 677.8 101C659 101 640 101 621.2 101C602.3 101 583.7 101 564.8 101C546 101 527 101 508.2 101C489.3 101 470.7 101 451.8 101C433 101 414 101 395.2 101C376.3 101 357.7 101 338.8 101C320 101 301 101 282.2 101C263.3 101 244.7 101 225.8 101C207 101 188 101 169.2 101C150.3 101 131.7 101 112.8 101C94 101 75 101 56.2 101C37.3 101 18.7 101 9.3 101L0 101Z" fill="#dba28f"></path><path d="M0 93L9.3 92.8C18.7 92.7 37.3 92.3 56.2 92C75 91.7 94 91.3 112.8 90.3C131.7 89.3 150.3 87.7 169.2 86.7C188 85.7 207 85.3 225.8 85.7C244.7 86 263.3 87 282.2 86.8C301 86.7 320 85.3 338.8 84.3C357.7 83.3 376.3 82.7 395.2 84.3C414 86 433 90 451.8 92C470.7 94 489.3 94 508.2 92.3C527 90.7 546 87.3 564.8 86.2C583.7 85 602.3 86 621.2 85.8C640 85.7 659 84.3 677.8 83.5C696.7 82.7 715.3 82.3 734.2 83.5C753 84.7 772 87.3 790.8 87.3C809.7 87.3 828.3 84.7 847.2 83.3C866 82 885 82 903.8 83.3C922.7 84.7 941.3 87.3 950.7 88.7L960 90L960 101L950.7 101C941.3 101 922.7 101 903.8 101C885 101 866 101 847.2 101C828.3 101 809.7 101 790.8 101C772 101 753 101 734.2 101C715.3 101 696.7 101 677.8 101C659 101 640 101 621.2 101C602.3 101 583.7 101 564.8 101C546 101 527 101 508.2 101C489.3 101 470.7 101 451.8 101C433 101 414 101 395.2 101C376.3 101 357.7 101 338.8 101C320 101 301 101 282.2 101C263.3 101 244.7 101 225.8 101C207 101 188 101 169.2 101C150.3 101 131.7 101 112.8 101C94 101 75 101 56.2 101C37.3 101 18.7 101 9.3 101L0 101Z" fill="#f7c59f"></path></svg>