<svg id="visual" viewBox="0 0 960 100" width="960" height="100" xmlns="http://www.w3.org/2000/svg" xmlns:xlink="http://www.w3.org/1999/xlink" version="1.1"><path d="M0 16L13.3 20.3C26.7 24.7 53.3 33.3 80 34C106.7 34.7 133.3 27.3 160 26C186.7 24.7 213.3 29.3 240 34.8C266.7 40.3 293.3 46.7 320 43.2C346.7 39.7 373.3 26.3 400 20.3C426.7 14.3 453.3 15.7 480 22.2C506.7 28.7 533.3 40.3 560 39C586.7 37.7 613.3 23.3 640 17.7C666.7 12 693.3 15 720 19.2C746.7 23.3 773.3 28.7 800 34.2C826.7 39.7 853.3 45.3 880 43.5C906.7 41.7 933.3 32.3 946.7 27.7L960 23L960 101L946.7 101C933.3 101 906.7 101 880 101C853.3 101 826.7 101 800 101C773.3 101 746.7 101 720 101C693.3 101 666.7 101 640 101C613.3 101 586.7 101 560 101C533.3 101 506.7 101 480 101C453.3 101 426.7 101 400 101C373.3 101 346.7 101 320 101C293.3 101 266.7 101 240 101C213.3 101 186.7 101 160 101C133.3 101 106.7 101 80 101C53.3 101 26.7 101 13.3 101L0 101Z" fill="#070617"></path><path d="M0 55L13.3 54.2C26.7 53.3 53.3 51.7 80 51.8C106.7 52 133.3 54 160 52C186.7 50 213.3 44 240 44.7C266.7 45.3 293.3 52.7 320 56.3C346.7 60 373.3 60 400 55.7C426.7 51.3 453.3 42.7 480 42C506.7 41.3 533.3 48.7 560 50C586.7 51.3 613.3 46.7 640 43C666.7 39.3 693.3 36.7 720 37.5C746.7 38.3 773.3 42.7 800 45.7C826.7 48.7 853.3 50.3 880 53C906.7 55.7 933.3 59.3 946.7 61.2L960 63L960 101L946.7 101C933.3 101 906.7 101 880 101C853.3 101 826.7 101 800 101C773.3 101 746.7 101 720 101C693.3 101 666.7 101 640 101C613.3 101 586.7 101 560 101C533.3 101 506.7 101 480 101C453.3 101 426.7 101 400 101C373.3 101 346.7 101 320 101C293.3 101 266.7 101 240 101C213.3 101 186.7 101 160 101C133.3 101 106.7 101 80 101C53.3 101 26.7 101 13.3 101L0 101Z" fill="#413041"></path><path d="M0 52L13.3 55.2C26.7 58.3 53.3 64.7 80 64C106.7 63.3 133.3 55.7 160 51.3C186.7 47 213.3 46 240 46C266.7 46 293.3 47 320 48.2C346.7 49.3 373.3 50.7 400 52.7C426.7 54.7 453.3 57.3 480 60.7C506.7 64 533.3 68 560 66.8C586.7 65.7 613.3 59.3 640 56.8C666.7 54.3 693.3 55.7 720 56.7C746.7 57.7 773.3 58.3 800 57.7C826.7 57 853.3 55 880 53.5C906.7 52 933.3 51 946.7 50.5L960 50L960 101L946.7 101C933.3 101 906.7 101 880 101C853.3 101 826.7 101 800 101C773.3 101 746.7 101 720 101C693.3 101 666.7 101 640 101C613.3 101 586.7 101 560 101C533.3 101 506.7 101 480 101C453.3 101 426.7 101 400 101C373.3 101 346.7 101 320 101C293.3 101 266.7 101 240 101C213.3 101 186.7 101 160 101C133.3 101 106.7 101 80 101C53.3 101 26.7 101 13.3 101L0 101Z" fill="#825966"></path><path d="M0 71L13.3 71.3C26.7 71.7 53.3 72.3 80 74.2C106.7 76 133.3 79 160 76.8C186.7 74.7 213.3 67.3 240 65.2C266.7 63 293.3 66 320 67.3C346.7 68.7 373.3 68.3 400 66.3C426.7 64.3 453.3 60.7 480 58.8C506.7 57 533.3 57 560 57.2C586.7 57.3 613.3 57.7 640 61.7C666.7 65.7 693.3 73.3 720 76.7C746.7 80 773.3 79 800 76.3C826.7 73.7 853.3 69.3 880 66.8C906.7 64.3 933.3 63.7 946.7 63.3L960 63L960 101L946.7 101C933.3 101 906.7 101 880 101C853.3 101 826.7 101 800 101C773.3 101 746.7 101 720 101C693.3 101 666.7 101 640 101C613.3 101 586.7 101 560 101C533.3 101 506.7 101 480 101C453.3 101 426.7 101 400 101C373.3 101 346.7 101 320 101C293.3 101 266.7 101 240 101C213.3 101 186.7 101 160 101C133.3 101 106.7 101 80 101C53.3 101 26.7 101 13.3 101L0 101Z" fill="#c28a83"></path><path d="M0 90L13.3 87C26.7 84 53.3 78 80 75.3C106.7 72.7 133.3 73.3 160 76.3C186.7 79.3 213.3 84.7 240 84.3C266.7 84 293.3 78 320 77C346.7 76 373.3 80 400 82.7C426.7 85.3 453.3 86.7 480 88.2C506.7 89.7 533.3 91.3 560 91.8C586.7 92.3 613.3 91.7 640 89.7C666.7 87.7 693.3 84.3 720 81.7C746.7 79 773.3 77 800 77C826.7 77 853.3 79 880 78.5C906.7 78 933.3 75 946.7 73.5L960 72L960 101L946.7 101C933.3 101 906.7 101 880 101C853.3 101 826.7 101 800 101C773.3 101 746.7 101 720 101C693.3 101 666.7 101 640 101C613.3 101 586.7 101 560 101C533.3 101 506.7 101 480 101C453.3 101 426.7 101 400 101C373.3 101 346.7 101 320 101C293.3 101 266.7 101 240 101C213.3 101 186.7 101 160 101C133.3 101 106.7 101 80 101C53.3 101 26.7 101 13.3 101L0 101Z" fill="#f7c59f"></path></svg>