<svg id="visual" viewBox="0 0 960 100" width="960" height="100" xmlns="http://www.w3.org/2000/svg" xmlns:xlink="http://www.w3.org/1999/xlink" version="1.1"><path d="M0 69L13.3 67C26.7 65 53.3 61 80 64.3C106.7 67.7 133.3 78.3 160 82.5C186.7 86.7 213.3 84.3 240 77.3C266.7 70.3 293.3 58.7 320 53.5C346.7 48.3 373.3 49.7 400 54.5C426.7 59.3 453.3 67.7 480 73.2C506.7 78.7 533.3 81.3 560 81.2C586.7 81 613.3 78 640 72.5C666.7 67 693.3 59 720 59.2C746.7 59.3 773.3 67.7 800 67.7C826.7 67.7 853.3 59.3 880 59.2C906.7 59 933.3 67 946.7 71L960 75L960 0L946.7 0C933.3 0 906.7 0 880 0C853.3 0 826.7 0 800 0C773.3 0 746.7 0 720 0C693.3 0 666.7 0 640 0C613.3 0 586.7 0 560 0C533.3 0 506.7 0 480 0C453.3 0 426.7 0 400 0C373.3 0 346.7 0 320 0C293.3 0 266.7 0 240 0C213.3 0 186.7 0 160 0C133.3 0 106.7 0 80 0C53.3 0 26.7 0 13.3 0L0 0Z" fill="#070617"></path><path d="M0 63L13.3 64C26.7 65 53.3 67 80 64.5C106.7 62 133.3 55 160 50.7C186.7 46.3 213.3 44.7 240 43.5C266.7 42.3 293.3 41.7 320 44C346.7 46.3 373.3 51.7 400 50.7C426.7 49.7 453.3 42.3 480 41.8C506.7 41.3 533.3 47.7 560 49.7C586.7 51.7 613.3 49.3 640 51.7C666.7 54 693.3 61 720 64C746.7 67 773.3 66 800 65.2C826.7 64.3 853.3 63.7 880 58.8C906.7 54 933.3 45 946.7 40.5L960 36L960 0L946.7 0C933.3 0 906.7 0 880 0C853.3 0 826.7 0 800 0C773.3 0 746.7 0 720 0C693.3 0 666.7 0 640 0C613.3 0 586.7 0 560 0C533.3 0 506.7 0 480 0C453.3 0 426.7 0 400 0C373.3 0 346.7 0 320 0C293.3 0 266.7 0 240 0C213.3 0 186.7 0 160 0C133.3 0 106.7 0 80 0C53.3 0 26.7 0 13.3 0L0 0Z" fill="#30183b"></path><path d="M0 26L13.3 27.2C26.7 28.3 53.3 30.7 80 33.8C106.7 37 133.3 41 160 39.5C186.7 38 213.3 31 240 29.8C266.7 28.7 293.3 33.3 320 37.7C346.7 42 373.3 46 400 48.8C426.7 51.7 453.3 53.3 480 51C506.7 48.7 533.3 42.3 560 37.2C586.7 32 613.3 28 640 30.8C666.7 33.7 693.3 43.3 720 44.5C746.7 45.7 773.3 38.3 800 36C826.7 33.7 853.3 36.3 880 38.5C906.7 40.7 933.3 42.3 946.7 43.2L960 44L960 0L946.7 0C933.3 0 906.7 0 880 0C853.3 0 826.7 0 800 0C773.3 0 746.7 0 720 0C693.3 0 666.7 0 640 0C613.3 0 586.7 0 560 0C533.3 0 506.7 0 480 0C453.3 0 426.7 0 400 0C373.3 0 346.7 0 320 0C293.3 0 266.7 0 240 0C213.3 0 186.7 0 160 0C133.3 0 106.7 0 80 0C53.3 0 26.7 0 13.3 0L0 0Z" fill="#6b164e"></path><path d="M0 28L13.3 29.7C26.7 31.3 53.3 34.7 80 33.3C106.7 32 133.3 26 160 25C186.7 24 213.3 28 240 28.7C266.7 29.3 293.3 26.7 320 25.5C346.7 24.3 373.3 24.7 400 25.7C426.7 26.7 453.3 28.3 480 29.7C506.7 31 533.3 32 560 32.2C586.7 32.3 613.3 31.7 640 32.5C666.7 33.3 693.3 35.7 720 36.8C746.7 38 773.3 38 800 36.3C826.7 34.7 853.3 31.3 880 28.5C906.7 25.7 933.3 23.3 946.7 22.2L960 21L960 0L946.7 0C933.3 0 906.7 0 880 0C853.3 0 826.7 0 800 0C773.3 0 746.7 0 720 0C693.3 0 666.7 0 640 0C613.3 0 586.7 0 560 0C533.3 0 506.7 0 480 0C453.3 0 426.7 0 400 0C373.3 0 346.7 0 320 0C293.3 0 266.7 0 240 0C213.3 0 186.7 0 160 0C133.3 0 106.7 0 80 0C53.3 0 26.7 0 13.3 0L0 0Z" fill="#a80448"></path><path d="M0 15L13.3 15.7C26.7 16.3 53.3 17.7 80 16.7C106.7 15.7 133.3 12.3 160 10.2C186.7 8 213.3 7 240 7.7C266.7 8.3 293.3 10.7 320 13.8C346.7 17 373.3 21 400 23.2C426.7 25.3 453.3 25.7 480 23C506.7 20.3 533.3 14.7 560 13.8C586.7 13 613.3 17 640 19C666.7 21 693.3 21 720 20.5C746.7 20 773.3 19 800 17.2C826.7 15.3 853.3 12.7 880 12C906.7 11.3 933.3 12.7 946.7 13.3L960 14L960 0L946.7 0C933.3 0 906.7 0 880 0C853.3 0 826.7 0 800 0C773.3 0 746.7 0 720 0C693.3 0 666.7 0 640 0C613.3 0 586.7 0 560 0C533.3 0 506.7 0 480 0C453.3 0 426.7 0 400 0C373.3 0 346.7 0 320 0C293.3 0 266.7 0 240 0C213.3 0 186.7 0 160 0C133.3 0 106.7 0 80 0C53.3 0 26.7 0 13.3 0L0 0Z" fill="#d62828"></path></svg>