<svg id="visual" viewBox="0 0 960 100" width="960" height="100" xmlns="http://www.w3.org/2000/svg" xmlns:xlink="http://www.w3.org/1999/xlink" version="1.1"><rect x="0" y="0" width="960" height="100" fill="#070617"></rect><path d="M0 30L9.3 31.5C18.7 33 37.3 36 56.2 37C75 38 94 37 112.8 34.2C131.7 31.3 150.3 26.7 169.2 27C188 27.3 207 32.7 225.8 36C244.7 39.3 263.3 40.7 282.2 41C301 41.3 320 40.7 338.8 40C357.7 39.3 376.3 38.7 395.2 37C414 35.3 433 32.7 451.8 32C470.7 31.3 489.3 32.7 508.2 33.5C527 34.3 546 34.7 564.8 33.8C583.7 33 602.3 31 621.2 29.2C640 27.3 659 25.7 677.8 28C696.7 30.3 715.3 36.7 734.2 40.2C753 43.7 772 44.3 790.8 44.8C809.7 45.3 828.3 45.7 847.2 43.2C866 40.7 885 35.3 903.8 35.3C922.7 35.3 941.3 40.7 950.7 43.3L960 46L960 101L950.7 101C941.3 101 922.7 101 903.8 101C885 101 866 101 847.2 101C828.3 101 809.7 101 790.8 101C772 101 753 101 734.2 101C715.3 101 696.7 101 677.8 101C659 101 640 101 621.2 101C602.3 101 583.7 101 564.8 101C546 101 527 101 508.2 101C489.3 101 470.7 101 451.8 101C433 101 414 101 395.2 101C376.3 101 357.7 101 338.8 101C320 101 301 101 282.2 101C263.3 101 244.7 101 225.8 101C207 101 188 101 169.2 101C150.3 101 131.7 101 112.8 101C94 101 75 101 56.2 101C37.3 101 18.7 101 9.3 101L0 101Z" fill="#070617"></path><path d="M0 25L9.3 28.8C18.7 32.7 37.3 40.3 56.2 44.5C75 48.7 94 49.3 112.8 47.8C131.7 46.3 150.3 42.7 169.2 39C188 35.3 207 31.7 225.8 29.5C244.7 27.3 263.3 26.7 282.2 26.3C301 26 320 26 338.8 30.3C357.7 34.7 376.3 43.3 395.2 45.2C414 47 433 42 451.8 42.2C470.7 42.3 489.3 47.7 508.2 47.3C527 47 546 41 564.8 38.3C583.7 35.7 602.3 36.3 621.2 39.2C640 42 659 47 677.8 47C696.7 47 715.3 42 734.2 42.3C753 42.7 772 48.3 790.8 49C809.7 49.7 828.3 45.3 847.2 43.5C866 41.7 885 42.3 903.8 39.5C922.7 36.7 941.3 30.3 950.7 27.2L960 24L960 101L950.7 101C941.3 101 922.7 101 903.8 101C885 101 866 101 847.2 101C828.3 101 809.7 101 790.8 101C772 101 753 101 734.2 101C715.3 101 696.7 101 677.8 101C659 101 640 101 621.2 101C602.3 101 583.7 101 564.8 101C546 101 527 101 508.2 101C489.3 101 470.7 101 451.8 101C433 101 414 101 395.2 101C376.3 101 357.7 101 338.8 101C320 101 301 101 282.2 101C263.3 101 244.7 101 225.8 101C207 101 188 101 169.2 101C150.3 101 131.7 101 112.8 101C94 101 75 101 56.2 101C37.3 101 18.7 101 9.3 101L0 101Z" fill="#1d142d"></path><path d="M0 36L9.3 35.3C18.7 34.7 37.3 33.3 56.2 36.7C75 40 94 48 112.8 48.7C131.7 49.3 150.3 42.7 169.2 42.2C188 41.7 207 47.3 225.8 50.5C244.7 53.7 263.3 54.3 282.2 53.8C301 53.3 320 51.7 338.8 50C357.7 48.3 376.3 46.7 395.2 43.5C414 40.3 433 35.7 451.8 33.7C470.7 31.7 489.3 32.3 508.2 32.7C527 33 546 33 564.8 34.8C583.7 36.7 602.3 40.3 621.2 40.8C640 41.3 659 38.7 677.8 37.2C696.7 35.7 715.3 35.3 734.2 35.7C753 36 772 37 790.8 41.2C809.7 45.3 828.3 52.7 847.2 55.8C866 59 885 58 903.8 57C922.7 56 941.3 55 950.7 54.5L960 54L960 101L950.7 101C941.3 101 922.7 101 903.8 101C885 101 866 101 847.2 101C828.3 101 809.7 101 790.8 101C772 101 753 101 734.2 101C715.3 101 696.7 101 677.8 101C659 101 640 101 621.2 101C602.3 101 583.7 101 564.8 101C546 101 527 101 508.2 101C489.3 101 470.7 101 451.8 101C433 101 414 101 395.2 101C376.3 101 357.7 101 338.8 101C320 101 301 101 282.2 101C263.3 101 244.7 101 225.8 101C207 101 188 101 169.2 101C150.3 101 131.7 101 112.8 101C94 101 75 101 56.2 101C37.3 101 18.7 101 9.3 101L0 101Z" fill="#38193f"></path><path d="M0 42L9.3 42.8C18.7 43.7 37.3 45.3 56.2 45.5C75 45.7 94 44.3 112.8 46.3C131.7 48.3 150.3 53.7 169.2 55.7C188 57.7 207 56.3 225.8 53.5C244.7 50.7 263.3 46.3 282.2 46.5C301 46.7 320 51.3 338.8 51.5C357.7 51.7 376.3 47.3 395.2 48C414 48.7 433 54.3 451.8 55.5C470.7 56.7 489.3 53.3 508.2 51.7C527 50 546 50 564.8 49.8C583.7 49.7 602.3 49.3 621.2 48.8C640 48.3 659 47.7 677.8 49.2C696.7 50.7 715.3 54.3 734.2 56.8C753 59.3 772 60.7 790.8 58.2C809.7 55.7 828.3 49.3 847.2 49C866 48.7 885 54.3 903.8 55C922.7 55.7 941.3 51.3 950.7 49.2L960 47L960 101L950.7 101C941.3 101 922.7 101 903.8 101C885 101 866 101 847.2 101C828.3 101 809.7 101 790.8 101C772 101 753 101 734.2 101C715.3 101 696.7 101 677.8 101C659 101 640 101 621.2 101C602.3 101 583.7 101 564.8 101C546 101 527 101 508.2 101C489.3 101 470.7 101 451.8 101C433 101 414 101 395.2 101C376.3 101 357.7 101 338.8 101C320 101 301 101 282.2 101C263.3 101 244.7 101 225.8 101C207 101 188 101 169.2 101C150.3 101 131.7 101 112.8 101C94 101 75 101 56.2 101C37.3 101 18.7 101 9.3 101L0 101Z" fill="#59194b"></path><path d="M0 52L9.3 54.7C18.7 57.3 37.3 62.7 56.2 65.8C75 69 94 70 112.8 70.2C131.7 70.3 150.3 69.7 169.2 69.5C188 69.3 207 69.7 225.8 70.3C244.7 71 263.3 72 282.2 69.8C301 67.7 320 62.3 338.8 62.5C357.7 62.7 376.3 68.3 395.2 68.3C414 68.3 433 62.7 451.8 60.3C470.7 58 489.3 59 508.2 59.7C527 60.3 546 60.7 564.8 62.8C583.7 65 602.3 69 621.2 69.7C640 70.3 659 67.7 677.8 66.5C696.7 65.3 715.3 65.7 734.2 65.7C753 65.7 772 65.3 790.8 64.3C809.7 63.3 828.3 61.7 847.2 60C866 58.3 885 56.7 903.8 55.3C922.7 54 941.3 53 950.7 52.5L960 52L960 101L950.7 101C941.3 101 922.7 101 903.8 101C885 101 866 101 847.2 101C828.3 101 809.7 101 790.8 101C772 101 753 101 734.2 101C715.3 101 696.7 101 677.8 101C659 101 640 101 621.2 101C602.3 101 583.7 101 564.8 101C546 101 527 101 508.2 101C489.3 101 470.7 101 451.8 101C433 101 414 101 395.2 101C376.3 101 357.7 101 338.8 101C320 101 301 101 282.2 101C263.3 101 244.7 101 225.8 101C207 101 188 101 169.2 101C150.3 101 131.7 101 112.8 101C94 101 75 101 56.2 101C37.3 101 18.7 101 9.3 101L0 101Z" fill="#7d124f"></path><path d="M0 76L9.3 76.7C18.7 77.3 37.3 78.7 56.2 79.2C75 79.7 94 79.3 112.8 78.2C131.7 77 150.3 75 169.2 74.8C188 74.7 207 76.3 225.8 77.3C244.7 78.3 263.3 78.7 282.2 76C301 73.3 320 67.7 338.8 68C357.7 68.3 376.3 74.7 395.2 77.8C414 81 433 81 451.8 78.5C470.7 76 489.3 71 508.2 69.5C527 68 546 70 564.8 69.3C583.7 68.7 602.3 65.3 621.2 65.7C640 66 659 70 677.8 72C696.7 74 715.3 74 734.2 74.7C753 75.3 772 76.7 790.8 77.3C809.7 78 828.3 78 847.2 77C866 76 885 74 903.8 74C922.7 74 941.3 76 950.7 77L960 78L960 101L950.7 101C941.3 101 922.7 101 903.8 101C885 101 866 101 847.2 101C828.3 101 809.7 101 790.8 101C772 101 753 101 734.2 101C715.3 101 696.7 101 677.8 101C659 101 640 101 621.2 101C602.3 101 583.7 101 564.8 101C546 101 527 101 508.2 101C489.3 101 470.7 101 451.8 101C433 101 414 101 395.2 101C376.3 101 357.7 101 338.8 101C320 101 301 101 282.2 101C263.3 101 244.7 101 225.8 101C207 101 188 101 169.2 101C150.3 101 131.7 101 112.8 101C94 101 75 101 56.2 101C37.3 101 18.7 101 9.3 101L0 101Z" fill="#a0064a"></path><path d="M0 75L9.3 76.5C18.7 78 37.3 81 56.2 80.7C75 80.3 94 76.7 112.8 74.8C131.7 73 150.3 73 169.2 74.3C188 75.7 207 78.3 225.8 79C244.7 79.7 263.3 78.3 282.2 77.8C301 77.3 320 77.7 338.8 77.7C357.7 77.7 376.3 77.3 395.2 78.5C414 79.7 433 82.3 451.8 81.8C470.7 81.3 489.3 77.7 508.2 78C527 78.3 546 82.7 564.8 84.7C583.7 86.7 602.3 86.3 621.2 85.5C640 84.7 659 83.3 677.8 81.8C696.7 80.3 715.3 78.7 734.2 79.3C753 80 772 83 790.8 82.2C809.7 81.3 828.3 76.7 847.2 76.7C866 76.7 885 81.3 903.8 81.3C922.7 81.3 941.3 76.7 950.7 74.3L960 72L960 101L950.7 101C941.3 101 922.7 101 903.8 101C885 101 866 101 847.2 101C828.3 101 809.7 101 790.8 101C772 101 753 101 734.2 101C715.3 101 696.7 101 677.8 101C659 101 640 101 621.2 101C602.3 101 583.7 101 564.8 101C546 101 527 101 508.2 101C489.3 101 470.7 101 451.8 101C433 101 414 101 395.2 101C376.3 101 357.7 101 338.8 101C320 101 301 101 282.2 101C263.3 101 244.7 101 225.8 101C207 101 188 101 169.2 101C150.3 101 131.7 101 112.8 101C94 101 75 101 56.2 101C37.3 101 18.7 101 9.3 101L0 101Z" fill="#be0b3d"></path><path d="M0 82L9.3 82C18.7 82 37.3 82 56.2 84C75 86 94 90 112.8 91.2C131.7 92.3 150.3 90.7 169.2 89.5C188 88.3 207 87.7 225.8 86.8C244.7 86 263.3 85 282.2 84.5C301 84 320 84 338.8 84.7C357.7 85.3 376.3 86.7 395.2 86.8C414 87 433 86 451.8 86.2C470.7 86.3 489.3 87.7 508.2 88C527 88.3 546 87.7 564.8 88.5C583.7 89.3 602.3 91.7 621.2 92.7C640 93.7 659 93.3 677.8 93C696.7 92.7 715.3 92.3 734.2 90.8C753 89.3 772 86.7 790.8 85.7C809.7 84.7 828.3 85.3 847.2 86.5C866 87.7 885 89.3 903.8 89.3C922.7 89.3 941.3 87.7 950.7 86.8L960 86L960 101L950.7 101C941.3 101 922.7 101 903.8 101C885 101 866 101 847.2 101C828.3 101 809.7 101 790.8 101C772 101 753 101 734.2 101C715.3 101 696.7 101 677.8 101C659 101 640 101 621.2 101C602.3 101 583.7 101 564.8 101C546 101 527 101 508.2 101C489.3 101 470.7 101 451.8 101C433 101 414 101 395.2 101C376.3 101 357.7 101 338.8 101C320 101 301 101 282.2 101C263.3 101 244.7 101 225.8 101C207 101 188 101 169.2 101C150.3 101 131.7 101 112.8 101C94 101 75 101 56.2 101C37.3 101 18.7 101 9.3 101L0 101Z" fill="#d62828"></path></svg>