<svg id="visual" viewBox="0 0 960 100" width="960" height="100" xmlns="http://www.w3.org/2000/svg" xmlns:xlink="http://www.w3.org/1999/xlink" version="1.1"><path d="M0 58L13.3 59.5C26.7 61 53.3 64 80 66.3C106.7 68.7 133.3 70.3 160 72.2C186.7 74 213.3 76 240 74.2C266.7 72.3 293.3 66.7 320 64.8C346.7 63 373.3 65 400 65.7C426.7 66.3 453.3 65.7 480 61.8C506.7 58 533.3 51 560 54.8C586.7 58.7 613.3 73.3 640 77.5C666.7 81.7 693.3 75.3 720 71.5C746.7 67.7 773.3 66.3 800 65.3C826.7 64.3 853.3 63.7 880 67C906.7 70.3 933.3 77.7 946.7 81.3L960 85L960 0L946.7 0C933.3 0 906.7 0 880 0C853.3 0 826.7 0 800 0C773.3 0 746.7 0 720 0C693.3 0 666.7 0 640 0C613.3 0 586.7 0 560 0C533.3 0 506.7 0 480 0C453.3 0 426.7 0 400 0C373.3 0 346.7 0 320 0C293.3 0 266.7 0 240 0C213.3 0 186.7 0 160 0C133.3 0 106.7 0 80 0C53.3 0 26.7 0 13.3 0L0 0Z" fill="#070617"></path><path d="M0 59L13.3 61.2C26.7 63.3 53.3 67.7 80 69.2C106.7 70.7 133.3 69.3 160 65.7C186.7 62 213.3 56 240 56C266.7 56 293.3 62 320 64.5C346.7 67 373.3 66 400 62C426.7 58 453.3 51 480 50.8C506.7 50.7 533.3 57.3 560 57.2C586.7 57 613.3 50 640 48.2C666.7 46.3 693.3 49.7 720 48.3C746.7 47 773.3 41 800 41C826.7 41 853.3 47 880 52.3C906.7 57.7 933.3 62.3 946.7 64.7L960 67L960 0L946.7 0C933.3 0 906.7 0 880 0C853.3 0 826.7 0 800 0C773.3 0 746.7 0 720 0C693.3 0 666.7 0 640 0C613.3 0 586.7 0 560 0C533.3 0 506.7 0 480 0C453.3 0 426.7 0 400 0C373.3 0 346.7 0 320 0C293.3 0 266.7 0 240 0C213.3 0 186.7 0 160 0C133.3 0 106.7 0 80 0C53.3 0 26.7 0 13.3 0L0 0Z" fill="#343f4c"></path><path d="M0 53L13.3 52C26.7 51 53.3 49 80 49.7C106.7 50.3 133.3 53.7 160 51.5C186.7 49.3 213.3 41.7 240 41.5C266.7 41.3 293.3 48.7 320 48.5C346.7 48.3 373.3 40.7 400 37.8C426.7 35 453.3 37 480 40.7C506.7 44.3 533.3 49.7 560 51C586.7 52.3 613.3 49.7 640 49.5C666.7 49.3 693.3 51.7 720 52.2C746.7 52.7 773.3 51.3 800 47C826.7 42.7 853.3 35.3 880 32C906.7 28.7 933.3 29.3 946.7 29.7L960 30L960 0L946.7 0C933.3 0 906.7 0 880 0C853.3 0 826.7 0 800 0C773.3 0 746.7 0 720 0C693.3 0 666.7 0 640 0C613.3 0 586.7 0 560 0C533.3 0 506.7 0 480 0C453.3 0 426.7 0 400 0C373.3 0 346.7 0 320 0C293.3 0 266.7 0 240 0C213.3 0 186.7 0 160 0C133.3 0 106.7 0 80 0C53.3 0 26.7 0 13.3 0L0 0Z" fill="#657a86"></path><path d="M0 34L13.3 31.3C26.7 28.7 53.3 23.3 80 24.5C106.7 25.7 133.3 33.3 160 33.5C186.7 33.7 213.3 26.3 240 24.2C266.7 22 293.3 25 320 26.5C346.7 28 373.3 28 400 27.8C426.7 27.7 453.3 27.3 480 28.7C506.7 30 533.3 33 560 32.7C586.7 32.3 613.3 28.7 640 26.8C666.7 25 693.3 25 720 25.7C746.7 26.3 773.3 27.7 800 30.3C826.7 33 853.3 37 880 37.8C906.7 38.7 933.3 36.3 946.7 35.2L960 34L960 0L946.7 0C933.3 0 906.7 0 880 0C853.3 0 826.7 0 800 0C773.3 0 746.7 0 720 0C693.3 0 666.7 0 640 0C613.3 0 586.7 0 560 0C533.3 0 506.7 0 480 0C453.3 0 426.7 0 400 0C373.3 0 346.7 0 320 0C293.3 0 266.7 0 240 0C213.3 0 186.7 0 160 0C133.3 0 106.7 0 80 0C53.3 0 26.7 0 13.3 0L0 0Z" fill="#9dbbc1"></path><path d="M0 20L13.3 18.5C26.7 17 53.3 14 80 14.3C106.7 14.7 133.3 18.3 160 19.8C186.7 21.3 213.3 20.7 240 17.8C266.7 15 293.3 10 320 8.5C346.7 7 373.3 9 400 12.2C426.7 15.3 453.3 19.7 480 20.2C506.7 20.7 533.3 17.3 560 15.2C586.7 13 613.3 12 640 13.2C666.7 14.3 693.3 17.7 720 17.5C746.7 17.3 773.3 13.7 800 12C826.7 10.3 853.3 10.7 880 10.8C906.7 11 933.3 11 946.7 11L960 11L960 0L946.7 0C933.3 0 906.7 0 880 0C853.3 0 826.7 0 800 0C773.3 0 746.7 0 720 0C693.3 0 666.7 0 640 0C613.3 0 586.7 0 560 0C533.3 0 506.7 0 480 0C453.3 0 426.7 0 400 0C373.3 0 346.7 0 320 0C293.3 0 266.7 0 240 0C213.3 0 186.7 0 160 0C133.3 0 106.7 0 80 0C53.3 0 26.7 0 13.3 0L0 0Z" fill="#defffc"></path></svg>